<?xml version="1.0" encoding="utf-8"?>
<!-- Generator: Adobe Illustrator 15.0.2, SVG Export Plug-In  -->
<!DOCTYPE svg PUBLIC "-//W3C//DTD SVG 1.1//EN" "http://www.w3.org/Graphics/SVG/1.1/DTD/svg11.dtd" [
	<!ENTITY ns_flows "http://ns.adobe.com/Flows/1.0/">
]>
<svg version="1.1"
	 xmlns="http://www.w3.org/2000/svg" xmlns:xlink="http://www.w3.org/1999/xlink" xmlns:a="http://ns.adobe.com/AdobeSVGViewerExtensions/3.0/"
	 x="0px" y="0px" width="30px" height="40px" viewBox="-8.0097656 -3.3945312 30 40"
	 overflow="visible" enable-background="new -8.0097656 -3.3945312 30 40" xml:space="preserve">
<defs>
</defs>
<path d="M11.2568359,3.7421875c0.0166016-0.1347656,0.0351562-0.2773438,0.0625-0.3730469
	c0.0527344-0.1821289,0.0820312-0.3774414,0.0917969-0.6948242c0.0097656-0.3164062-0.0986328-0.7553711-0.109375-0.831543
	c-0.0097656-0.0756836,0.0253906-0.0957031,0.0615234-0.1694336c0.0341797-0.074707,0.0849609-0.2666016,0.0703125-0.4267578
	c-0.0146484-0.1591797-0.0556641-0.3188477-0.1269531-0.3583984c-0.0683594-0.0375977-0.1445312,0.0200195-0.1474609,0.1049805
	c-0.0019531,0.0483398,0.0058594,0.2607422-0.0419922,0.3603516c-0.046875,0.0991211-0.1191406,0.2475586-0.1191406,0.2475586
	s-0.1640625-0.0693359-0.2285156-0.1450195s-0.1181641-0.1914062-0.1845703-0.2817383
	c-0.0673828-0.0908203-0.1699219-0.2763672-0.2236328-0.3842773c-0.0537109-0.1083984-0.2041016-0.3027344-0.2783203-0.3305664
	c-0.0732422-0.0283203-0.1855469,0.0415039-0.1855469,0.0415039l0.0332031,0.1806641c0,0-0.0976562-0.0947266-0.1376953-0.1508789
	c-0.0371094-0.0561523-0.1416016-0.1875-0.2265625-0.2451172C9.4824219,0.2280273,9.3359375,0.3413086,9.3359375,0.3413086
	l0.03125,0.1108398c0,0-0.1425781,0.0820312-0.1318359,0.1572266C9.2451172,0.6850586,9.3662109,0.9375,9.3857422,1.0292969
	C9.4072266,1.1201172,9.5126953,1.378418,9.578125,1.515625c0.0644531,0.137207,0.1328125,0.3432617,0.1328125,0.3432617
	s-0.1738281-0.0913086-0.296875-0.1894531C9.2929688,1.5712891,9.1513672,1.4912109,8.953125,1.5112305
	C8.7568359,1.5307617,8.6835938,1.6542969,8.6982422,1.7236328c0.0146484,0.0654297,0.25,0.0893555,0.3095703,0.137207
	c0.0791016,0.0639648,0.1318359,0.1552734,0.2216797,0.2426758s0.2822266,0.3066406,0.2978516,0.3657227
	c0.0166016,0.0595703,0.0742188,0.1958008,0.1357422,0.2587891c0.0439453,0.0439453,0.1416016,0.0800781,0.2558594,0.2260742
	c0.1123047,0.1445312,0.2451172,0.3266602,0.2451172,0.3266602s0.0644531,0.2392578,0.0605469,0.4057617
	c0,0-0.0859375-0.0058594-0.0878906,0.0556641c-0.0029297,0.0698242,0.0009766,0.3330078,0.0087891,0.4018555
	c0.0058594,0.0527344,0.0791016,0.0546875,0.0791016,0.0546875s0.0214844,0.9458008,0.0126953,1.2758789
	c-0.0068359,0.2944336-0.1386719,1.003418-0.2255859,1.4873047c-0.0849609,0.484375-0.0771484,0.6870117-0.0839844,1.0678711
	c-0.0068359,0.4726562,0.0791016,0.9453125,0.0605469,1.0664062c-0.0166016,0.121582-0.1455078,0.3447266-0.1982422,0.465332
	c0,0-0.4316406-0.0693359-0.5019531-0.1142578C9.2167969,9.402832,9.2373047,8.715332,8.9394531,8.3393555
	C8.6796875,8.012207,8.4472656,7.9545898,8.3349609,7.9072266c-0.1142578-0.046875-0.0683594-0.1826172-0.2744141-0.2358398
	c-0.2060547-0.0537109-0.2900391,0.0073242-0.4335938-0.03125S7.4970703,7.4189453,7.2915039,7.3813477
	C7.1855469,7.3618164,7.019043,7.3540039,6.9658203,7.2856445C6.9125977,7.2167969,6.8632812,7.1025391,6.6191406,7.003418
	C6.3754883,6.9047852,6.2075195,6.9003906,6.1533203,6.8642578c-0.0917969-0.0605469-0.1181641-0.2241211-0.253418-0.2294922
	C5.8105469,6.6303711,5.7167969,6.7495117,5.8188477,6.9399414C5.8706055,7.0351562,5.7880859,7.0639648,5.6933594,7
	C5.5830078,6.925293,5.5043945,6.9526367,5.4453125,7.0766602C5.4091797,7.1533203,5.328125,7.1416016,5.2568359,7.0883789
	c-0.0898438-0.0673828-0.0595703-0.1367188-0.1708984-0.206543C4.9814453,6.815918,4.8510742,6.8100586,4.8510742,6.8100586
	s-0.0537109-0.449707-0.1606445-0.746582C4.5839844,5.7661133,4.4516602,5.2104492,4.4389648,4.980957
	C4.4179688,4.6210938,4.4013672,4.4091797,4.3632812,4.2333984C4.3251953,4.0581055,4.3022461,3.578125,4.2944336,3.4638672
	C4.2871094,3.3491211,4.3022461,3.0751953,4.3022461,3.0751953S4.4086914,2.8764648,4.5,2.7163086
	s0.1831055-0.2089844,0.2211914-0.2587891C4.7749023,2.387207,4.8129883,2.2446289,4.8203125,2.1831055
	C4.828125,2.1220703,4.9882812,1.8779297,5.0644531,1.7788086C5.140625,1.6801758,5.1811523,1.5820312,5.2509766,1.5073242
	c0.0512695-0.0546875,0.28125-0.1108398,0.2861328-0.1782227c0.0043945-0.0708008-0.0839844-0.1826172-0.2822266-0.175293
	C5.0566406,1.1616211,4.9272461,1.2607422,4.8203125,1.3754883C4.7138672,1.4897461,4.5537109,1.6040039,4.5537109,1.6040039
	s0.0375977-0.2128906,0.0839844-0.3579102c0.0454102-0.1455078,0.1142578-0.4165039,0.121582-0.5092773
	C4.7666016,0.6435547,4.8510742,0.3769531,4.8510742,0.300293c0-0.0756836-0.1523438-0.1376953-0.1523438-0.1376953
	l0.0151367-0.1142578c0,0-0.1601562-0.0913086-0.2363281-0.0224609S4.3173828,0.2392578,4.2871094,0.300293
	C4.2563477,0.3618164,4.1723633,0.4682617,4.1723633,0.4682617l0.0078125-0.1831055c0,0-0.1220703-0.0532227-0.1904297-0.015625
	c-0.0683594,0.0380859-0.190918,0.2519531-0.2290039,0.3666992C3.7226562,0.75,3.6464844,0.9482422,3.5927734,1.0473633
	C3.5400391,1.1464844,3.5014648,1.2680664,3.4482422,1.3525391C3.3955078,1.4360352,3.2431641,1.527832,3.2431641,1.527832
	S3.1513672,1.3911133,3.0898438,1.2988281C3.0288086,1.2075195,3.0068359,0.9956055,2.9990234,0.9482422
	C2.9838867,0.8642578,2.8994141,0.8183594,2.8383789,0.8642578C2.7729492,0.9135742,2.7543945,1.0776367,2.762207,1.237793
	c0.0073242,0.1606445,0.0839844,0.3432617,0.1293945,0.4116211C2.9375,1.7177734,2.9755859,1.7333984,2.9755859,1.8095703
	S2.9301758,2.3359375,2.9833984,2.6479492C3.0366211,2.9609375,3.09375,3.1499023,3.1713867,3.3232422
	c0.0727539,0.1625977,0.1396484,0.5288086,0.1474609,0.6894531c0,0-0.0029297,0.8051758,0.0058594,1.3955078
	C3.331543,5.8203125,3.3066406,6.2392578,3.3066406,6.2392578S3.1894531,5.9619141,2.9360352,6.0380859
	C2.534668,6.159668,2.3706055,5.9912109,2.1689453,6.050293C2.0805664,6.0761719,1.6904297,6.2861328,1.7675781,6.3666992
	c0.0766602,0.0810547,0.3891602-0.0605469,0.5961914,0.0493164C2.6123047,6.5473633,2.7436523,6.4433594,2.762207,6.550293
	c0.0195312,0.1079102-0.2661133-0.046875-0.503418,0.0131836c-0.0966797,0.0234375-0.1904297,0.1176758-0.159668,0.1469727
	c0.0732422,0.0703125,0.2890625,0.0341797,0.3623047,0.1074219C2.5776367,6.934082,3.1796875,6.8540039,2.887207,7.0854492
	C2.7456055,7.1977539,2.4975586,6.9130859,2.4365234,6.9667969C2.3759766,7.0205078,2.2749023,7.0776367,2.3203125,7.152832
	c0.0449219,0.0751953,0.1723633,0.0024414,0.2626953,0.1030273c0.1098633,0.121582,0.1337891,0.1484375,0.1337891,0.1484375
	s-0.0151367,0.1982422,0.137207,0.2822266c0.1523438,0.0834961,0.0986328,0.2133789,0.0454102,0.2514648
	S2.53125,7.8095703,2.3125,7.9306641C2.2163086,7.9833984,2.2133789,8.1591797,2.2133789,8.1591797
	S2.175293,8.2807617,2.0229492,8.2734375C1.8701172,8.265625,1.7709961,8.2026367,1.6337891,8.3417969
	C1.590332,8.387207,1.5200195,8.6474609,1.5883789,8.737793c0.0683594,0.0917969-0.2592773,0.1298828-0.3959961,0.1987305
	C1.0546875,9.0048828,0.9941406,9.043457,0.9638672,9.21875c-0.03125,0.175293,0.0537109,0.4130859-0.0922852,0.5175781
	c-0.1655273,0.1210938-0.1298828,0.4614258-0.0463867,0.5068359c0.0830078,0.0458984,0.3188477-0.0405273,0.3569336-0.2084961
	c0.0375977-0.1674805,0.1855469-0.5874023,0.3530273-0.4501953c0.1679688,0.137207,0.1069336,0.296875,0.2358398,0.434082
	c0.1293945,0.1376953,0.2973633,0.1142578,0.4272461,0.0151367c0.1293945-0.0986328,0.4951172-0.1450195,0.4648438,0.0991211
	c-0.0307617,0.2441406-0.0991211,0.3359375-0.0078125,0.4199219c0.0913086,0.0834961,0.637207,0.2744141,0.7319336,0.6669922
	c0.034668,0.1430664,0.1899414,0.4516602-0.0151367,0.3618164c-0.09375-0.0410156-0.1586914-0.3798828-0.2587891-0.3276367
	c-0.1181641,0.0610352-0.1777344,0.2871094-0.0380859,0.5107422c0.0654297,0.1049805,0.3364258,0.2636719,0.3349609,0.4189453
	c0,0.0410156-0.1420898,0.0693359-0.0991211,0.1831055C3.3764648,12.5405273,3.5625,12.5571289,3.5625,12.5571289
	s-0.0302734,0.5185547,0.0688477,1.1889648c0.0986328,0.6708984,0.3662109,1.4179688,0.3959961,1.5708008
	c0.0307617,0.1523438,0.0581055,1.2573242,0.137207,1.8442383c0.0844727,0.6181641,0.2075195,1.0322266,0.3818359,1.5439453
	c0.1821289,0.5380859,0.3652344,1.0556641,0.449707,1.3222656c0.0834961,0.2666016,0.1523438,0.7783203,0.1679688,0.8457031
	c0.0146484,0.0693359,0.1225586,0.8535156,0.1606445,1.2041016c0.0385742,0.3505859,0.0498047,0.7695312,0.0498047,0.7695312
	s-0.0249023,0.6630859-0.1982422,1.078125c-0.1728516,0.4160156-0.2998047,0.6923828-0.59375,0.8652344
	s-3.8676758,2.2958984-4.2133789,3.5234375c0,0-0.2836914,0.3857422-0.3168945,0.8173828
	c-0.0263672,0.3339844-0.0805664,0.4755859-0.0341797,0.6923828c0.0517578,0.2412109,0.5004883,0.7431641,0.9155273,0.8291016
	c0.4155273,0.0869141,1.1240234,0,1.4008789-0.1025391c0,0,0.847168-0.2431641,1.0722656-0.3300781
	c0.2246094-0.0859375,0.6938477-0.1464844,0.8496094-0.1464844c0.1552734,0,0.3950195,0.0097656,0.3950195,0.0097656
	s-0.0166016,0.0693359,0.0546875,0.1279297c0.0913086,0.0761719,0.3354492,0.0380859,0.3354492,0.0380859
	s-0.2133789,0.5029297-0.269043,1.1826172c-0.0600586,0.7412109,0.0668945,1.5263672,0.6401367,1.5898438
	c0.4291992,0.0478516,0.7041016-0.1035156,0.7954102-0.3447266c0.0566406-0.1494141,0.0454102-0.2099609,0.1733398-0.2597656
	c0.1484375-0.0595703,0.2587891-0.2939453,0.2416992-0.4667969s0.0117188-0.3212891,0.1030273-0.3974609
	c0.0957031-0.0791016,0.137207-0.3808594,0.0703125-0.4677734C6.7060547,30.96875,6.6586914,30.8125,6.7944336,30.6982422
	c0.0888672-0.0732422,0.0976562-0.3183594-0.050293-0.4257812C6.637207,30.1943359,6.765625,30,6.765625,30
	s0.203125,0.046875,0.3422852-0.1601562c0.1376953-0.2080078,0.0683594-0.328125,0.1206055-0.4833984
	c0.0522461-0.15625,0.0693359-0.15625,0.2246094-0.2773438c0.1557617-0.1210938,0.1557617-0.4833984,0.1210938-0.7431641
	s-0.1728516-0.4492188-0.1728516-0.4492188s0.2421875-0.1738281,0.5019531-0.2431641
	c0.2587891-0.0683594,0.5703125-0.0869141,0.5703125-0.0869141s0.0351562,0.9345703,0.0693359,1.4707031
	c0.0332031,0.5371094,0,1.0195312-0.0693359,1.6591797c-0.0703125,0.640625,0.1210938,1.8164062,0.6220703,2.0751953
	c0.5019531,0.2597656,0.3486328,0.3564453,0.6337891,0.4306641c0.3085938,0.0791016,1.0605469-0.1181641,1.2685547-0.2919922
	c0.2080078-0.1728516,0.2255859-0.3808594,0.484375-0.5537109c0.2597656-0.1728516,0.65625-0.6220703,0.7431641-1.0361328
	c0.0859375-0.4160156,0.1396484-0.9023438,0.1396484-0.9023438s0.1611328,0.4677734,0.3964844,0.5175781
	c0.5283203,0.1171875,0.7910156-0.1904297,0.9765625-0.8222656c0.2060547-0.6972656-0.015625-1.0673828-0.015625-1.0673828
	s0.0908203-0.3603516-0.1074219-0.5800781c-0.1220703-0.1367188-0.1445312-0.2246094-0.1259766-0.4833984
	c0.0166016-0.2597656-0.2001953-0.2919922-0.2001953-0.2919922s0.6181641-0.3701172,0.6796875-0.4492188
	c0.0585938-0.0800781-0.1162109-0.4345703-0.2080078-0.4326172c-0.0927734,0.0019531-0.4101562,0.2402344-0.4101562,0.2402344
	s-0.0175781-0.1738281-0.1044922-0.2255859s-0.0751953-0.1181641-0.0517578-0.2939453
	c0.0400391-0.3056641-0.2041016-0.6230469-0.6152344-0.7021484c-0.359375-0.0693359-0.6259766,0.0917969-0.6259766,0.0917969
	s-0.0498047-0.5839844-0.0791016-0.7802734c-0.0458984-0.2949219-0.1103516-0.6083984-0.1835938-0.875
	c-0.1015625-0.3720703-0.1835938-0.6142578-0.3164062-0.9140625c-0.1464844-0.3291016-0.3681641-0.6162109-0.5488281-0.9736328
	c-0.1044922-0.2109375-0.3447266-0.6708984-0.4150391-1.0175781c-0.0693359-0.3447266-0.15625-0.9501953,0-1.3818359
	c0.1552734-0.4326172,0.3896484-1.3320312,0.5009766-1.8212891c0.0820312-0.3642578,0.3642578-1.0322266,0.3984375-1.7592773
	c0.0341797-0.7260742,0.0693359-0.5361328,0.1728516-0.96875c0.1035156-0.4316406,0.3632812-1.3134766,0.3125-2.2128906
	c-0.0527344-0.8994141-0.1738281-0.9858398-0.2089844-1.4179688c-0.0341797-0.4326172-0.1376953-1.5385742-0.1894531-1.7983398
	c-0.0527344-0.2597656-0.0869141-0.4667969-0.0869141-0.6748047c0-0.2075195,0.0341797-0.6049805,0.0527344-1.0551758
	c0.0166016-0.4487305,0.0859375-0.8984375,0.0683594-1.5039062c-0.0166016-0.6054688-0.1630859-2.5161133-0.1630859-2.5161133
	s0.0664062-0.0141602,0.0673828-0.0629883c0.0019531-0.0585938-0.0029297-0.3193359-0.0048828-0.3774414
	C11.3271484,3.7475586,11.2568359,3.7421875,11.2568359,3.7421875z"/>
</svg>
