<?xml version="1.0" encoding="utf-8"?>
<!-- Generator: Adobe Illustrator 15.0.2, SVG Export Plug-In  -->
<!DOCTYPE svg PUBLIC "-//W3C//DTD SVG 1.1//EN" "http://www.w3.org/Graphics/SVG/1.1/DTD/svg11.dtd" [
	<!ENTITY ns_flows "http://ns.adobe.com/Flows/1.0/">
]>
<svg version="1.1"
	 xmlns="http://www.w3.org/2000/svg" xmlns:xlink="http://www.w3.org/1999/xlink" xmlns:a="http://ns.adobe.com/AdobeSVGViewerExtensions/3.0/"
	 x="0px" y="0px" width="144px" height="216px" viewBox="-3.2661 -12.9404 144 216"
	 overflow="visible" enable-background="new -3.2661 -12.9404 144 216" xml:space="preserve">
<defs>
</defs>
<linearGradient id="SVGID_1_" gradientUnits="userSpaceOnUse" x1="32.1831" y1="180.46" x2="137.8653" y2="180.46">
	<stop  offset="0.4128" style="stop-color:#4D4D4F"/>
	<stop  offset="0.6631" style="stop-color:#403F41;stop-opacity:0.5736"/>
	<stop  offset="1" style="stop-color:#000000;stop-opacity:0"/>
</linearGradient>
<ellipse fill="url(#SVGID_1_)" cx="84.5752" cy="180.4609" rx="52.3921" ry="9.1582"/>
<path fill="#E2DEDE" stroke="#000000" stroke-miterlimit="10" d="M104.8384,76.7383c0,0,9.0332-6.3828,8.9268-16.8467
	c-0.0381-3.7373,0-8.0039,0-18.7041c0-16.6885-4.582-20.4424-23.9141-20.4424H43.5693c-19.8599,0-23.9141,3.334-23.9097,20.4424
	c0.002,11.3906-0.2983,15.71,0.2896,21.793c0.6943,7.1807,9.1904,15.1113,9.1904,15.1113l-16.2695,14.375
	c0,0-11.1064-11.4072-11.7661-22.8643c-0.5737-9.9824-0.8022-17.0273-0.4038-35.6582C1.0957,15.3955,15.6201,0.5,34.0244,0.5
	h64.5005c18.4043,0,33.3242,14.0068,33.3242,33.4443c0,17.5068,0,24.4902,0,30.6016c0,16.9043-11.5674,26.1836-11.5674,26.1836
	L104.8384,76.7383z"/>
<linearGradient id="SVGID_2_" gradientUnits="userSpaceOnUse" x1="42.0947" y1="98.2646" x2="89.9765" y2="0.0925">
	<stop  offset="0" style="stop-color:#000000;stop-opacity:0"/>
	<stop  offset="0.9104" style="stop-color:#000000;stop-opacity:0.9104"/>
	<stop  offset="1" style="stop-color:#000000"/>
</linearGradient>
<path fill="url(#SVGID_2_)" d="M109.938,81.0723c0,0,9.1025-6.8018,9.1367-18.5c0.0107-3.334,0-11.3193,0-20.8643
	c0-14.8838-2.1416-27.793-23.0234-27.793l-56.5483,0.168c-24.4404,0-25.2734,12.3662-25.269,27.625
	c0.002,10.1611,0.1592,13.9883,0.2593,19.4395c0.2471,13.5645,9.7593,20.7695,9.7593,20.7695l-5.5112,4.957
	c0,0-9.082-7.082-10.6069-19.8193C7.0752,58.1992,7.418,51.8672,7.7729,35.249C8.126,18.7041,16.6895,7.5078,37.499,7.5078h57.5317
	c20.9023,0,29.7227,10.4043,29.7227,27.7412c0,15.6143,0,21.8438,0,27.2939c0,15.0771-9.8857,23.1611-9.8857,23.1611
	L109.938,81.0723z"/>
<path d="M120.1001,100.7178l4.627-6.6465c0.4346-0.4775,0.5068-1.1045,0.1631-1.4062l-20.5557-18.707
	c-0.3428-0.3018-0.9697-0.1592-1.4023,0.3184l-4.6279,5.1094c-7.7871-5.5273-20.0293-7.8584-30.5288-7.8584
	c-11.2373,0-23.3877,3.3047-32.167,9.627l-4.4155-4.877c-0.4326-0.4775-1.0591-0.6211-1.4023-0.3184L9.4429,93.6123
	c-0.3452,0.3018-0.2715,0.9287,0.1611,1.4062l4.8115,5.3115c-5.2544,7.5898-7.5527,20.6289-7.5527,31.0459
	c0,23.3135,17.6162,51.2607,33.3794,53.3818c15.7607,2.1211,38.8091,2.2617,55.0679,0
	c16.2568-2.2617,33.3799-30.0684,33.3799-53.3818C128.6899,118.0811,126.3296,109.4766,120.1001,100.7178z"/>
<path fill="#FFFFFF" d="M89.9731,147.3984h-1.0264v-0.3711h2.4971v0.3711h-1.0312v3.002h-0.4395V147.3984z"/>
<path fill="#FFFFFF" d="M94.7603,148.9199c-0.0254-0.4707-0.0557-1.0371-0.0508-1.457h-0.0146
	c-0.1152,0.3955-0.2549,0.8164-0.4258,1.2812l-0.5957,1.6367h-0.3301l-0.5459-1.6064c-0.1602-0.4756-0.2949-0.9111-0.3896-1.3115
	H92.397c-0.0098,0.4199-0.0342,0.9863-0.0645,1.4922l-0.0898,1.4453h-0.416l0.2354-3.373h0.5557l0.5752,1.6318
	c0.1406,0.415,0.2559,0.7861,0.3408,1.1357h0.0146c0.085-0.3398,0.2051-0.7109,0.3555-1.1357l0.6006-1.6318h0.5557l0.21,3.373
	h-0.4248L94.7603,148.9199z"/>
<rect x="59.5693" y="126.123" fill="#FFFFFF" width="10.3022" height="14.7559"/>
<rect x="75.9458" y="116.7295" fill="#FFFFFF" width="14.25" height="12.2354"/>
<path fill="#FFFFFF" d="M66.5195,138.7959v-12.0518l11.3345-16.8105h8.8701c2.625,0,4.9697,0.4062,6.9688,1.1992
	c2.0391,0.8145,3.709,1.9102,4.9541,3.2617c1.2207,1.3242,2.127,2.8008,2.6846,4.377c0.541,1.5322,0.8125,3.1211,0.8125,4.7168
	c0,1.584-0.2764,3.1523-0.8193,4.666c-0.5586,1.5479-1.4609,2.999-2.6797,4.3145c-1.251,1.3447-2.9189,2.4307-4.9648,3.2305
	c-1.9941,0.7861-4.333,1.1816-6.9561,1.1816h-4.9053v1.915H66.5195z M81.9409,125.5312c2.0205,0,3.1045-0.1504,3.6543-0.2812
	c0.4014-0.0898,0.7002-0.2324,0.8037-0.373c0.041-0.0576,0.2373-0.3848,0.2373-1.3379c0-0.5-0.0635-1.3838-0.4756-1.6406
	c-0.2334-0.1406-1.2207-0.6133-4.2725-0.6133h-0.0693v4.2461H81.9409z"/>
<path d="M99.2368,119.5098c-0.457-1.2988-1.2002-2.502-2.2207-3.6133c-1.0205-1.1104-2.4043-2.0078-4.1436-2.7031
	c-1.7461-0.6914-3.793-1.0381-6.1484-1.0381h-7.6924l-10.2974,15.2666v9.1602h10.8677v-1.916h7.1221
	c2.3555,0,4.4023-0.3418,6.1484-1.0303c1.7393-0.6846,3.123-1.5732,4.1436-2.6748c1.0205-1.0996,1.7637-2.2871,2.2207-3.5615
	c0.4609-1.2715,0.6924-2.5762,0.6924-3.9111C99.9292,122.1348,99.6978,120.8105,99.2368,119.5098z M88.2036,126.1641
	c-0.4326,0.6074-1.1328,1.0254-2.1045,1.25c-0.9717,0.2227-2.3555,0.3359-4.1582,0.3359h-2.3389v-8.6836h2.2861
	c2.6162,0,4.4336,0.3184,5.4443,0.9492c1.0137,0.6348,1.5225,1.8066,1.5225,3.5234
	C88.855,124.6807,88.6362,125.5586,88.2036,126.1641z"/>
<polygon fill="#FFFFFF" points="35.3467,150.4004 53.9814,122.9766 36.5469,122.9766 46.6348,109.9336 80.2915,109.9336 
	61.7061,137.3301 66.5195,137.3301 66.5195,136.3711 81.8188,136.3711 81.8188,150.4004 "/>
<polygon points="68.7344,139.5508 57.5215,139.5508 76.1069,112.1553 47.7227,112.1553 41.0684,120.7598 58.1748,120.7598 
	39.5352,148.1797 68.7344,148.1797 78.3237,148.1797 79.6021,148.1797 79.6021,138.5879 68.7344,138.5879 "/>
<path d="M99.2368,119.5098c-0.457-1.2988-1.2002-2.502-2.2207-3.6133c-1.0205-1.1104-2.4043-2.0078-4.1436-2.7031
	c-1.7461-0.6914-3.793-1.0381-6.1484-1.0381h-7.6924l-10.2974,15.2666v9.1602h10.8677v-1.916h7.1221
	c2.3555,0,4.4023-0.3418,6.1484-1.0303c1.7393-0.6846,3.123-1.5732,4.1436-2.6748c1.0205-1.0996,1.7637-2.2871,2.2207-3.5615
	c0.4609-1.2715,0.6924-2.5762,0.6924-3.9111C99.9292,122.1348,99.6978,120.8105,99.2368,119.5098z M88.2036,126.1641
	c-0.4326,0.6074-1.1328,1.0254-2.1045,1.25c-0.9717,0.2227-2.3555,0.3359-4.1582,0.3359h-2.3389v-8.6836h2.2861
	c2.6162,0,4.4336,0.3184,5.4443,0.9492c1.0137,0.6348,1.5225,1.8066,1.5225,3.5234
	C88.855,124.6807,88.6362,125.5586,88.2036,126.1641z"/>
<polygon points="68.7344,139.5508 57.5215,139.5508 76.1069,112.1553 47.7227,112.1553 41.0684,120.7598 58.1748,120.7598 
	39.5352,148.1797 68.7344,148.1797 78.3237,148.1797 79.6021,148.1797 79.6021,138.5879 68.7344,138.5879 "/>
<g>
	<path fill="#FFFFFF" d="M68.7344,91.1895c21.5269,0,38.978,17.4502,38.978,38.9785c0,21.5273-17.4512,38.9785-38.978,38.9785
		c-21.5283,0-38.979-17.4512-38.979-38.9785C29.7554,108.6396,47.2061,91.1895,68.7344,91.1895 M68.7344,90.1895
		c-22.0444,0-39.979,17.9346-39.979,39.9785s17.9346,39.9785,39.979,39.9785s39.978-17.9346,39.978-39.9785
		S90.7788,90.1895,68.7344,90.1895L68.7344,90.1895z"/>
</g>
</svg>
