<?xml version="1.0" encoding="utf-8"?>
<!-- Generator: Adobe Illustrator 15.0.2, SVG Export Plug-In  -->
<!DOCTYPE svg PUBLIC "-//W3C//DTD SVG 1.1//EN" "http://www.w3.org/Graphics/SVG/1.1/DTD/svg11.dtd" [
	<!ENTITY ns_flows "http://ns.adobe.com/Flows/1.0/">
]>
<svg version="1.1"
	 xmlns="http://www.w3.org/2000/svg" xmlns:xlink="http://www.w3.org/1999/xlink" xmlns:a="http://ns.adobe.com/AdobeSVGViewerExtensions/3.0/"
	 x="0px" y="0px" width="432px" height="153px" viewBox="-10.618 -7.34 432 153"
	 overflow="visible" enable-background="new -10.618 -7.34 432 153" xml:space="preserve">
<defs>
</defs>
<path fill="#98509F" d="M197.901,124.283c0,0-0.846-0.351-1.044-0.22c-0.197,0.131-0.526,0.724-0.526,1.054
	c0,0.329-0.396,0.921-0.987,1.382c-0.592,0.46-1.448,1.186-1.711,1.514c-0.263,0.329-2.238,1.777-2.896,1.843
	c-0.659,0.066-1.909,0.593-2.172,0.922c-0.263,0.328-0.526,1.185,0.263,1.712c0.79,0.526,4.212,1.25,5.529,1.25
	c1.316,0,2.567-1.053,3.949-0.789c1.382,0.263,4.937-0.066,5.66-0.198c0.724-0.132,0.922-1.316,0.791-1.514s0-0.79-0.395-1.58
	c-0.396-0.79-0.592-0.986-0.724-1.711c-0.132-0.724-0.065-1.843-0.263-1.909c-0.198-0.065-0.264-0.789-0.264-0.789
	s-0.131-5.859,0.33-7.176c0.461-1.315,2.304-5.858,1.909-9.544c-0.354-3.297,0-4.41,0-5.66c0-1.251-0.254-3.243,0.658-5.596
	c1.917-4.945,3.276-11.949,3.424-13.434c0.018-0.186,0.119-0.244,0.252-0.255c0.135-0.012,0.266,0.03,0.322,0.188
	c0.373,1.042,2.051,4.725,2.848,5.863c0.922,1.317,2.371,5.145,3.357,6.978c0.922,1.713,3.027,4.081,3.291,4.937
	s0.461,2.041,0.922,2.766s1.186,1.711,1.91,2.962c0.723,1.25,0.693,7.144,2.172,9.559c2.205,3.601,4.146,10.122,4.146,10.122
	s-0.266,0.461-0.463,0.79c-0.195,0.33-0.131,1.383-0.131,1.383s-0.131,0.593-0.527,0.724c-0.395,0.132-0.305,0.66-0.043,0.989
	c0.266,0.329,0.242,0.723,0.242,0.723s-0.121,1.187-0.658,2.021c-0.631,0.979-1.268,1.759-1.492,2.207
	c-0.395,0.791-0.68,1.894-0.023,2.09c1.057,0.317,2.963,0.526,4.146,0.395c1.188-0.131,3.16-0.658,3.623-1.842
	c0.195-0.507,0.328-1.449,0.656-1.844c0.33-0.396,0.855-2.173,0.592-2.963c-0.262-0.789-0.658-1.447-0.789-1.974
	s-0.395-1.712-0.789-1.909s-0.527-1.25-0.725-1.777c-0.197-0.526-0.658-6.978-0.725-10.333c-0.066-3.357-1.506-8.442-3.488-10.796
	c0,0-1.184-3.291-1.975-4.739c-0.789-1.447-0.719-4.469-1.078-7.485c-0.322-2.719-1.68-8.562-2.793-11.772
	c-0.98-2.835-2.326-4.301-2.418-6.598c-0.068-1.696-0.482-3.121-0.684-3.78c-0.199-0.643-0.535-1.298-1.422-3.146
	c-0.506-1.056-1.119-3.107-0.725-4.884c0.396-1.777,2.85-5.949,3.41-7.682c0.691-2.135,2.318-3.759,2.682-5.27
	c0.307-1.281,0.197-5.2,0.592-6.188c0.395-0.987,1.383-4.936,0.725-6.319c-0.658-1.382-0.197-2.238-0.197-2.238
	s1.184-4.212-0.197-6.188c-0.863-1.232-2.832-2.896-2.832-2.896s-0.463-1.856-0.463-2.634c0-0.943,0.463-3.29-0.721-5.857
	c-1.186-2.567-3.227-7.636-3.555-8.689s-0.658-3.291-0.658-3.291s0.133-3.028-0.33-3.62c-0.459-0.592-1.775-1.483-1.973-1.483
	s-1.193,0.028-1.193,0.028S211.665,0,211.337,0c-0.33,0-1.002,0.417-1.002,0.417s-0.451,0.034-0.846,0.1
	c-0.395,0.066-0.553,0.794-0.553,0.794s-1-0.353-1.133-0.023c-0.131,0.329,0.109,0.869-0.023,1.395
	c-0.131,0.527-0.088,1.127-0.023,1.588s0.855,1.548,1.252,1.877c0.395,0.329,1.539,0.29,2.066,0.619s0.592,0.658,0.855,1.119
	s0.855,0.592,0.988,0.987c0.131,0.395,1.316,5.002,1.383,6.056c0.064,1.053,0.811,3.903,0.986,4.344
	c0.256,0.636,0.527,1.628,0.527,2.154c0,0.527,0.039,1.09,0.039,1.09s-2.191-0.985-3.969-0.194c-1.777,0.79-2.785,2.611-2.85,3.27
	c-0.068,0.658-0.199,1.382-0.33,1.842c-0.131,0.461,0.066,1.449,0.066,1.844c0,0.395-0.197,0.856-0.197,1.58
	c0,0.724,0.592,1.316,0.789,2.304s0.262,1.646,0.592,1.909c0.33,0.263,1.186,0.197,1.383,0.527c0.197,0.329,0.244,1.542,0.131,1.909
	c-0.262,0.855-1.053,1.316-1.053,1.316s-0.525-0.856-1.58-1.514c-1.053-0.658-1.447-1.316-2.039-1.909
	c-0.33-0.33-1.12-0.856-1.12-0.856s-0.856-4.213-2.239-6.253c-1.382-2.04-1.579-2.633-1.382-2.962
	c0.197-0.33-0.526-5.003-0.987-6.516c-0.461-1.514-0.396-3.555-0.527-5.135c-0.131-1.58-0.395-3.225-0.46-3.818
	c-0.066-0.592,1.185-1.448,1.185-1.448s1.646-2.172,1.843-2.566c0.198-0.395-0.263-1.581-0.593-2.041
	c-0.329-0.46-1.185-1.053-1.514-1.053c-0.33,0-0.856,0.329-0.856,0.329s-0.289-0.346-0.618-0.214
	c-0.329,0.132-0.662,0.442-0.662,0.442s-0.457-0.083-0.72-0.017c-0.263,0.066-0.889,0.506-0.889,0.506l-0.965,0.998
	c0,0-0.494,0.221-0.237,0.587c0.22,0.314,0.698,0.11,0.698,0.11s-0.226,0.288-0.226,1.011c0,0.725,0.197,2.502,0.592,3.028
	c0.395,0.526-0.066,1.646-0.197,2.567c-0.132,0.921-0.988,7.24-0.791,8.688c0.198,1.449,0.856,3.488,0.856,4.015
	s0,1.449,0.264,1.909c0.263,0.461,0.921,1.251,1.119,2.106c0.197,0.856,0.987,2.896,1.58,5.529c0.592,2.633,1.58,5.134,2.303,6.188
	s1.435,2.918,1.369,3.839c-0.427,0.714-1.696,2.216-2.682,3.236c-0.756,0.784-0.651,3.173,0.188,4.479
	c0.586,0.913,1.553,1.689,1.541,1.748c-0.039,0.179-1.006,3.588-1.204,4.905c-0.197,1.317-0.301,1.88-0.269,2.803
	c0.042,1.154,0.598,2.511,0.241,4.062c-0.475,2.053-0.46,2.702-0.614,5.198c-0.142,2.303-0.544,3.826-1.137,6.063
	c-0.592,2.238-2.567,10.269-2.041,15.206c0.527,4.936,1.316,6.977,1.12,7.767c-0.198,0.79-0.461,2.962-0.33,3.753
	c0.132,0.789,0.33,1.908,0.198,3.027c-0.131,1.119-0.46,4.872-0.329,7.833s0.396,7.372,0.198,8.294
	C198.306,123.668,197.901,124.283,197.901,124.283z"/>
<path d="M18.38,87.878c0-4.439,0-5.234-0.057-6.146c-0.057-0.967-0.285-1.422-1.224-1.621c-0.228-0.057-0.711-0.086-0.967-0.086
	c-0.114,0-0.228-0.057-0.228-0.17c0-0.172,0.143-0.229,0.456-0.229c1.28,0,2.987,0.086,3.215,0.086c0.626,0,2.276-0.086,3.585-0.086
	c3.557,0,4.837,1.195,5.292,1.623c0.626,0.598,1.422,1.877,1.422,3.385c0,4.041-2.958,6.771-7,6.771c-0.142,0-0.455,0-0.598-0.027
	c-0.142,0-0.312-0.057-0.312-0.199c0-0.227,0.171-0.256,0.768-0.256c2.76,0,4.922-2.02,4.922-4.639c0-0.938-0.085-2.846-1.593-4.381
	c-1.508-1.537-3.244-1.424-3.898-1.424c-0.484,0-0.968,0.057-1.224,0.172c-0.171,0.057-0.228,0.256-0.228,0.541v11.693
	c0,2.732,0,4.98,0.142,6.176c0.085,0.824,0.256,1.451,1.11,1.564c0.398,0.057,1.024,0.113,1.28,0.113
	c0.171,0,0.228,0.086,0.228,0.172c0,0.141-0.143,0.227-0.456,0.227c-1.565,0-3.358-0.086-3.5-0.086
	c-0.085,0-1.878,0.086-2.731,0.086c-0.313,0-0.456-0.057-0.456-0.227c0-0.086,0.057-0.172,0.228-0.172
	c0.256,0,0.598-0.057,0.854-0.113c0.569-0.113,0.711-0.74,0.825-1.564c0.142-1.195,0.142-3.443,0.142-6.176V87.878z"/>
<path d="M38.243,89.843c0-3.758,0-4.439-0.057-5.209c-0.057-0.824-0.199-1.223-1.024-1.336c-0.199-0.029-0.626-0.057-0.854-0.057
	c-0.085,0-0.199-0.115-0.199-0.199c0-0.143,0.114-0.199,0.398-0.199c1.138,0,2.76,0.057,2.902,0.057c0.17,0,5.406,0.027,5.975,0
	c0.484-0.029,0.939-0.115,1.138-0.143c0.114-0.029,0.228-0.113,0.341-0.113c0.085,0,0.114,0.113,0.114,0.227
	c0,0.172-0.142,0.455-0.199,1.139c-0.028,0.227-0.085,1.309-0.142,1.594c-0.028,0.113-0.114,0.256-0.228,0.256
	c-0.143,0-0.199-0.113-0.199-0.312c0-0.172-0.028-0.57-0.142-0.854c-0.171-0.398-0.427-0.57-1.792-0.74
	c-0.427-0.057-3.329-0.086-3.614-0.086c-0.114,0-0.143,0.086-0.143,0.256v6.572c0,0.172,0,0.258,0.143,0.258
	c0.312,0,3.614,0,4.183-0.059c0.597-0.057,0.967-0.086,1.224-0.34c0.17-0.172,0.284-0.312,0.37-0.312s0.143,0.055,0.143,0.199
	c0,0.141-0.143,0.539-0.199,1.336c-0.057,0.484-0.114,1.395-0.114,1.564c0,0.199-0.057,0.455-0.228,0.455
	c-0.114,0-0.17-0.084-0.17-0.227c0-0.229,0-0.484-0.114-0.797c-0.085-0.342-0.313-0.627-1.28-0.74
	c-0.683-0.086-3.357-0.113-3.784-0.113c-0.142,0-0.171,0.084-0.171,0.172v2.02c0,0.824-0.028,3.641,0,4.125
	c0.057,1.621,0.512,1.936,2.988,1.936c0.654,0,1.85,0,2.504-0.256c0.654-0.285,0.996-0.713,1.138-1.68
	c0.057-0.285,0.114-0.369,0.256-0.369c0.142,0,0.17,0.199,0.17,0.369s-0.199,1.82-0.341,2.334c-0.171,0.625-0.427,0.625-1.395,0.625
	c-1.878,0-3.329-0.057-4.354-0.084c-1.052-0.059-1.707-0.059-2.077-0.059c-0.057,0-0.541,0-1.081,0.029
	c-0.484,0.029-1.053,0.057-1.452,0.057c-0.256,0-0.398-0.057-0.398-0.199c0-0.086,0.057-0.199,0.199-0.199
	c0.228,0,0.541-0.086,0.769-0.113c0.483-0.086,0.541-0.57,0.654-1.281c0.142-0.996,0.142-2.902,0.142-5.234V89.843z"/>
<path d="M56.626,89.843c0-3.758,0-4.439-0.057-5.209c-0.057-0.824-0.199-1.223-1.024-1.336c-0.199-0.029-0.626-0.057-0.854-0.057
	c-0.085,0-0.199-0.115-0.199-0.199c0-0.143,0.114-0.199,0.398-0.199c1.138,0,2.817,0.057,2.959,0.057
	c0.256,0,2.362-0.057,3.13-0.057c1.594,0,3.357,0.141,4.667,1.053c0.626,0.455,1.736,1.621,1.736,3.301
	c0,1.791-0.74,3.527-3.073,5.52c2.049,2.561,3.785,4.752,5.236,6.26c1.337,1.365,2.162,1.594,2.788,1.678
	c0.484,0.086,0.74,0.086,0.882,0.086c0.143,0,0.228,0.113,0.228,0.199c0,0.143-0.142,0.199-0.598,0.199h-1.564
	c-1.423,0-2.049-0.143-2.675-0.484c-1.082-0.568-1.992-1.734-3.415-3.557c-1.053-1.309-2.163-2.873-2.704-3.527
	c-0.113-0.115-0.17-0.143-0.341-0.143l-3.187-0.057c-0.114,0-0.171,0.057-0.171,0.199v0.568c0,2.334,0,4.211,0.114,5.207
	c0.085,0.711,0.228,1.168,0.996,1.281c0.341,0.057,0.882,0.113,1.11,0.113c0.17,0,0.199,0.113,0.199,0.199
	c0,0.113-0.114,0.199-0.398,0.199c-1.366,0-2.959-0.086-3.073-0.086c-0.028,0-1.708,0.086-2.476,0.086
	c-0.256,0-0.398-0.057-0.398-0.199c0-0.086,0.057-0.199,0.199-0.199c0.228,0,0.541-0.057,0.768-0.113
	c0.483-0.113,0.541-0.57,0.654-1.281c0.142-0.996,0.142-2.902,0.142-5.234V89.843z M58.789,91.892c0,0.141,0.057,0.227,0.171,0.311
	c0.37,0.199,1.65,0.371,2.76,0.371c0.598,0,1.28-0.029,1.878-0.428c0.854-0.568,1.508-1.85,1.508-3.697
	c0-3.018-1.65-4.752-4.325-4.752c-0.739,0-1.536,0.084-1.792,0.141c-0.114,0.059-0.199,0.143-0.199,0.285V91.892z"/>
<path d="M76.092,100.796c-0.341-0.17-0.37-0.256-0.37-0.91c0-1.195,0.114-2.162,0.142-2.561c0-0.256,0.057-0.398,0.2-0.398
	c0.142,0,0.228,0.086,0.228,0.285s0,0.539,0.085,0.881c0.398,1.764,2.277,2.391,3.955,2.391c2.476,0,3.756-1.395,3.756-3.215
	c0-1.736-0.939-2.562-3.159-4.213l-1.138-0.854c-2.704-2.02-3.585-3.498-3.585-5.178c0-2.846,2.248-4.553,5.548-4.553
	c0.996,0,1.992,0.143,2.589,0.285c0.484,0.113,0.683,0.113,0.882,0.113s0.256,0.029,0.256,0.172c0,0.113-0.114,0.91-0.114,2.561
	c0,0.369-0.028,0.541-0.199,0.541s-0.199-0.115-0.228-0.314c-0.028-0.283-0.228-0.938-0.37-1.195
	c-0.17-0.283-0.996-1.195-3.244-1.195c-1.821,0-3.329,0.912-3.329,2.619c0,1.537,0.769,2.418,3.244,4.098l0.711,0.484
	c3.044,2.076,4.098,3.754,4.098,5.832c0,1.422-0.541,2.959-2.333,4.125c-1.053,0.684-2.618,0.854-3.983,0.854
	C78.568,101.451,77.117,101.281,76.092,100.796z"/>
<path d="M102.897,82.501c5.634,0,9.902,3.443,9.902,9.076c0,5.406-4.012,9.873-10.044,9.873c-6.857,0-9.788-5.15-9.788-9.504
	C92.967,88.05,95.983,82.501,102.897,82.501z M103.467,100.455c2.248,0,6.772-1.193,6.772-8.193c0-5.805-3.528-8.85-7.483-8.85
	c-4.183,0-7.199,2.617-7.199,7.881C95.557,96.927,98.942,100.455,103.467,100.455z"/>
<path d="M121.794,97.837c0.057,1.992,0.285,2.59,0.967,2.76c0.456,0.115,1.024,0.143,1.252,0.143c0.114,0,0.199,0.086,0.199,0.199
	c0,0.143-0.171,0.199-0.455,0.199c-1.423,0-2.418-0.086-2.646-0.086c-0.228,0-1.281,0.086-2.418,0.086
	c-0.256,0-0.398-0.027-0.398-0.199c0-0.113,0.085-0.199,0.199-0.199c0.199,0,0.654-0.027,1.024-0.143
	c0.625-0.17,0.711-0.824,0.711-3.016V83.724c0-0.967,0.143-1.223,0.342-1.223c0.284,0,0.711,0.482,0.967,0.74
	c0.398,0.396,4.041,4.268,7.91,8.252c2.476,2.559,5.15,5.434,5.918,6.23l-0.256-12.121c-0.028-1.566-0.17-2.105-0.938-2.248
	c-0.456-0.086-1.024-0.113-1.224-0.113c-0.171,0-0.199-0.143-0.199-0.229c0-0.143,0.199-0.17,0.483-0.17
	c1.139,0,2.333,0.057,2.618,0.057c0.285,0,1.11-0.057,2.134-0.057c0.256,0,0.455,0.027,0.455,0.17c0,0.086-0.113,0.229-0.285,0.229
	c-0.114,0-0.313,0-0.597,0.057c-0.825,0.17-0.882,0.654-0.882,2.105l-0.057,14.17c0,1.594-0.028,1.736-0.199,1.736
	c-0.256,0-0.512-0.199-1.907-1.48c-0.256-0.229-3.869-3.785-6.516-6.545c-2.902-3.043-5.719-6.004-6.487-6.857L121.794,97.837z"/>
<path d="M150.962,83.326c0.313-0.797,0.426-0.939,0.598-0.939c0.256,0,0.341,0.342,0.597,0.883
	c0.456,1.025,4.468,11.012,6.004,14.682c0.91,2.164,1.593,2.477,2.134,2.646c0.37,0.115,0.74,0.143,0.996,0.143
	c0.142,0,0.313,0.057,0.313,0.199s-0.286,0.199-0.569,0.199c-0.37,0-2.22,0-3.956-0.057c-0.483-0.029-0.882-0.029-0.882-0.17
	c0-0.115,0.057-0.115,0.171-0.172c0.143-0.057,0.398-0.256,0.228-0.654l-2.248-5.549c-0.057-0.113-0.085-0.143-0.227-0.143h-5.776
	c-0.113,0-0.199,0.057-0.256,0.199l-1.422,3.871c-0.228,0.598-0.37,1.193-0.37,1.621c0,0.484,0.427,0.654,0.853,0.654h0.229
	c0.199,0,0.256,0.086,0.256,0.199c0,0.143-0.143,0.199-0.371,0.199c-0.597,0-1.963-0.086-2.248-0.086
	c-0.256,0-1.508,0.086-2.532,0.086c-0.313,0-0.484-0.057-0.484-0.199c0-0.113,0.113-0.199,0.228-0.199
	c0.17,0,0.541-0.027,0.74-0.057c1.138-0.143,1.623-0.996,2.105-2.219L150.962,83.326z M153.751,93.398
	c0.114,0,0.114-0.057,0.085-0.17l-2.475-6.629c-0.142-0.371-0.284-0.371-0.427,0l-2.334,6.629c-0.028,0.113,0,0.17,0.086,0.17
	H153.751z"/>
<path d="M169.886,94.167c0,3.557,0.057,5.008,0.513,5.434c0.398,0.398,1.366,0.57,3.329,0.57c1.309,0,2.419-0.029,3.017-0.74
	c0.313-0.369,0.513-0.883,0.598-1.365c0.028-0.172,0.114-0.314,0.256-0.314c0.113,0,0.17,0.115,0.17,0.371s-0.17,1.707-0.369,2.418
	c-0.171,0.57-0.256,0.654-1.593,0.654c-1.792,0-3.188-0.027-4.354-0.084c-1.138-0.029-1.992-0.059-2.731-0.059
	c-0.114,0-0.542,0-1.025,0.029c-0.513,0.029-1.053,0.057-1.451,0.057c-0.256,0-0.398-0.057-0.398-0.199
	c0-0.086,0.057-0.199,0.199-0.199c0.229,0,0.541-0.057,0.769-0.113c0.483-0.113,0.54-0.57,0.654-1.281
	c0.142-0.996,0.142-2.902,0.142-5.234v-4.268c0-3.758,0-4.439-0.057-5.209c-0.057-0.824-0.199-1.223-1.023-1.336
	c-0.199-0.029-0.627-0.057-0.854-0.057c-0.086,0-0.199-0.115-0.199-0.199c0-0.143,0.113-0.199,0.398-0.199
	c1.138,0,2.702,0.057,2.846,0.057c0.112,0,1.992-0.057,2.759-0.057c0.256,0,0.398,0.057,0.398,0.199c0,0.084-0.113,0.17-0.199,0.17
	c-0.17,0-0.541,0.029-0.825,0.057c-0.739,0.143-0.881,0.512-0.938,1.365c-0.029,0.77-0.029,1.451-0.029,5.209V94.167z"/>
<path d="M19.398,70.955c4.837,0,6.687-1.186,7.446-2.608c0.427-0.759,0.711-1.613,0.854-2.276c0.094-0.475,0.189-0.759,0.474-0.759
	c0.379,0,0.475,0.332,0.475,1.47c0,1.518-0.617,4.601-0.948,5.787c-0.238,0.854-0.569,1.232-1.423,1.232
	c-7.92,0-15.888-0.236-25.468-0.236C0.285,73.564,0,73.421,0,73.089s0.142-0.57,0.711-1.424
	c6.687-10.433,13.707-21.151,20.062-31.159h-9.296c-2.418,0-5.312,0.143-6.829,0.996c-1.565,0.854-2.419,2.608-2.561,3.699
	c-0.095,0.664-0.285,0.854-0.569,0.854c-0.332,0-0.379-0.237-0.379-0.806c0-1.091,0.711-5.407,0.948-6.83
	c0.095-0.665,0.284-0.901,0.569-0.901c0.426,0,0.711,0.285,1.897,0.332c4.505,0.19,6.782,0.142,8.727,0.142h14.465
	c0.474,0,0.806,0.142,0.806,0.38c0,0.284-0.189,0.569-0.379,0.901C21.627,49.897,14.418,60.758,7.73,70.955H19.398z"/>
<path d="M38.796,63.51c-0.237,0-0.285,0.046-0.379,0.284l-2.229,5.453c-0.427,0.997-0.617,1.993-0.617,2.468
	c0,0.711,0.379,1.137,1.66,1.137h0.617c0.521,0,0.616,0.191,0.616,0.428c0,0.332-0.237,0.428-0.664,0.428
	c-1.375,0-3.32-0.143-4.648-0.143c-0.427,0-2.656,0.143-4.837,0.143c-0.521,0-0.759-0.096-0.759-0.428
	c0-0.236,0.143-0.428,0.475-0.428c0.379,0,0.854-0.047,1.233-0.047c1.897-0.285,2.608-1.518,3.462-3.558l10.909-25.183
	c0.474-1.138,0.806-1.612,1.233-1.612c0.617,0,0.806,0.379,1.233,1.28c0.996,2.229,7.968,18.544,10.624,24.663
	c1.613,3.652,2.798,4.173,3.557,4.316c0.617,0.094,1.091,0.141,1.565,0.141c0.379,0,0.569,0.143,0.569,0.428
	c0,0.332-0.237,0.428-1.802,0.428c-1.47,0-4.505,0-8.015-0.096c-0.759-0.047-1.233-0.047-1.233-0.332
	c0-0.236,0.095-0.379,0.521-0.428c0.285-0.047,0.569-0.426,0.379-0.9l-3.225-8.157c-0.095-0.237-0.237-0.284-0.427-0.284H38.796z
	 M47.713,61.28c0.189,0,0.237-0.095,0.189-0.237l-3.936-10.102c-0.048-0.142-0.095-0.379-0.19-0.379
	c-0.142,0-0.189,0.237-0.237,0.379l-4.031,10.054c-0.095,0.19,0,0.285,0.142,0.285H47.713z"/>
<path d="M69.814,63.224c0-2.181-0.379-3.035-0.948-4.221c-0.285-0.617-5.976-9.485-7.446-11.62c-1.043-1.47-1.897-2.419-2.703-2.845
	c-0.521-0.285-1.233-0.522-1.755-0.522c-0.332,0-0.616-0.143-0.616-0.427c0-0.285,0.284-0.379,0.806-0.379
	c0.711,0,3.841,0.095,5.217,0.095c0.901,0,2.846-0.095,4.743-0.095c0.379,0,0.617,0.095,0.617,0.379
	c0,0.332-0.285,0.332-0.949,0.521c-0.332,0.095-0.569,0.285-0.569,0.617s0.189,0.806,0.521,1.375
	c0.759,1.233,6.213,10.671,6.924,11.81c0.522-0.948,5.596-9.58,6.213-10.813c0.427-0.901,0.617-1.613,0.617-2.135
	c0-0.379-0.19-0.759-0.901-0.901c-0.379-0.095-0.759-0.142-0.759-0.474c0-0.285,0.237-0.379,0.711-0.379
	c1.375,0,2.846,0.095,4.079,0.095c0.901,0,3.651-0.095,4.458-0.095c0.474,0,0.759,0.095,0.759,0.332
	c0,0.285-0.332,0.475-0.807,0.475c-0.427,0-1.186,0.189-1.802,0.474c-0.901,0.427-1.281,0.807-2.182,1.897
	c-1.375,1.612-7.352,11.192-8.11,12.9c-0.616,1.47-0.521,2.704-0.521,4.032v3.225c0,0.664,0,2.323,0.095,4.031
	c0.095,1.186,0.474,1.943,1.708,2.135c0.616,0.094,1.518,0.141,2.086,0.141c0.475,0,0.711,0.238,0.711,0.428
	c0,0.285-0.332,0.428-0.901,0.428c-2.609,0-5.407-0.143-6.545-0.143c-1.043,0-3.842,0.143-5.407,0.143
	c-0.569,0-0.901-0.096-0.901-0.428c0-0.189,0.189-0.428,0.664-0.428c0.569,0,1.091-0.047,1.47-0.141
	c0.854-0.191,1.186-0.949,1.28-2.135c0.142-1.708,0.142-3.367,0.142-4.031V63.224z"/>
<path d="M95.9,68.205c0.095,3.128,0.617,4.078,1.423,4.363c0.711,0.236,1.518,0.283,2.182,0.283c0.474,0,0.711,0.191,0.711,0.428
	c0,0.332-0.379,0.428-0.949,0.428c-2.703,0-4.647-0.143-5.406-0.143c-0.38,0-2.372,0.143-4.506,0.143
	c-0.569,0-0.948-0.049-0.948-0.428c0-0.236,0.284-0.428,0.664-0.428c0.569,0,1.329-0.047,1.897-0.189
	c1.091-0.283,1.233-1.375,1.281-4.884l0.379-23.903c0-0.806,0.284-1.375,0.711-1.375c0.522,0,1.091,0.616,1.802,1.328
	c0.522,0.522,6.782,6.924,12.853,12.853c2.846,2.798,8.395,8.49,9.011,9.059h0.19l-0.427-17.928
	c-0.048-2.466-0.427-3.178-1.423-3.557c-0.617-0.237-1.613-0.237-2.182-0.237c-0.522,0-0.664-0.19-0.664-0.427
	c0-0.332,0.427-0.379,1.043-0.379c2.182,0,4.411,0.095,5.312,0.095c0.474,0,2.039-0.095,4.079-0.095
	c0.569,0,0.948,0.047,0.948,0.379c0,0.237-0.237,0.427-0.711,0.427c-0.427,0-0.759,0-1.28,0.142c-1.138,0.332-1.47,1.043-1.518,3.32
	L119.898,72.9c0,0.9-0.332,1.279-0.664,1.279c-0.712,0-1.281-0.426-1.708-0.854c-2.608-2.418-7.825-7.398-12.189-11.619
	c-4.553-4.363-8.963-9.248-9.77-9.959h-0.142L95.9,68.205z"/>
<path d="M134.981,63.51c-0.237,0-0.284,0.046-0.379,0.284l-2.229,5.453c-0.427,0.997-0.616,1.993-0.616,2.468
	c0,0.711,0.379,1.137,1.66,1.137h0.617c0.521,0,0.616,0.191,0.616,0.428c0,0.332-0.237,0.428-0.664,0.428
	c-1.375,0-3.32-0.143-4.648-0.143c-0.427,0-2.656,0.143-4.837,0.143c-0.522,0-0.759-0.096-0.759-0.428
	c0-0.236,0.142-0.428,0.474-0.428c0.379,0,0.854-0.047,1.233-0.047c1.897-0.285,2.608-1.518,3.462-3.558l10.908-25.183
	c0.474-1.138,0.806-1.612,1.234-1.612c0.616,0,0.806,0.379,1.233,1.28c0.996,2.229,7.967,18.544,10.624,24.663
	c1.612,3.652,2.798,4.173,3.557,4.316c0.617,0.094,1.091,0.141,1.564,0.141c0.38,0,0.57,0.143,0.57,0.428
	c0,0.332-0.238,0.428-1.802,0.428c-1.471,0-4.506,0-8.015-0.096c-0.759-0.047-1.234-0.047-1.234-0.332
	c0-0.236,0.096-0.379,0.522-0.428c0.285-0.047,0.57-0.426,0.38-0.9l-3.226-8.157c-0.094-0.237-0.237-0.284-0.427-0.284H134.981z
	 M143.897,61.28c0.19,0,0.237-0.095,0.19-0.237l-3.937-10.102c-0.047-0.142-0.094-0.379-0.19-0.379
	c-0.142,0-0.189,0.237-0.236,0.379l-4.032,10.054c-0.095,0.19,0,0.285,0.143,0.285H143.897z"/>
<path d="M163.153,54.877c0-6.118,0-7.257-0.047-8.537c-0.095-1.375-0.475-1.802-1.802-2.182c-0.332-0.095-1.043-0.142-1.66-0.142
	c-0.427,0-0.712-0.143-0.712-0.427c0-0.285,0.332-0.379,0.95-0.379c2.181,0,4.837,0.095,5.643,0.095
	c2.087,0,4.838-0.095,6.261-0.095c7.541,0,8.869,3.889,8.869,6.023c0,3.13-2.324,5.549-4.696,7.066
	c3.415,1.091,7.684,3.984,7.684,8.728c0,4.315-3.415,8.773-11.099,8.773c-0.475,0-1.896-0.047-3.32-0.143
	c-1.422-0.047-2.892-0.094-3.557-0.094c-0.474,0-1.375,0.047-2.371,0.047c-0.997,0.047-2.04,0.096-2.893,0.096
	c-0.521,0-0.807-0.143-0.807-0.428c0-0.189,0.143-0.428,0.665-0.428c0.617,0,1.091-0.047,1.471-0.141
	c0.854-0.191,1.09-0.949,1.232-2.135c0.19-1.708,0.19-4.885,0.19-8.584V54.877z M168.56,55.541c0,0.333,0.142,0.38,0.285,0.427
	c0.379,0.095,0.996,0.143,1.945,0.143c1.375,0,2.561-0.143,3.272-0.711c1.091-0.854,1.897-2.324,1.897-4.269
	c0-2.703-1.612-6.07-5.217-6.07c-0.568,0-1.375,0-1.802,0.095c-0.284,0.047-0.38,0.237-0.38,0.664V55.541z M168.56,67.398
	c0,2.656,0.142,3.463,1.471,3.984c1.09,0.426,2.039,0.475,2.988,0.475c2.229,0,5.122-1.234,5.122-5.692
	c0-1.85-0.806-5.027-3.936-7.162c-0.854-0.617-1.993-1.043-3.605-1.043h-1.802c-0.142,0-0.238,0.047-0.238,0.285V67.398z"/>
<path d="M251.692,92.886c0,2.732,0,4.98,0.143,6.176c0.086,0.824,0.256,1.451,1.109,1.564c0.398,0.057,1.025,0.113,1.282,0.113
	c0.17,0,0.227,0.086,0.227,0.172c0,0.141-0.142,0.227-0.455,0.227c-1.566,0-3.358-0.086-3.5-0.086c-0.143,0-1.935,0.086-2.789,0.086
	c-0.313,0-0.455-0.057-0.455-0.227c0-0.086,0.057-0.172,0.229-0.172c0.256,0,0.598-0.057,0.854-0.113
	c0.568-0.113,0.71-0.74,0.824-1.564c0.143-1.195,0.143-3.443,0.143-6.176V80.851l-4.21,0.057c-1.765,0.027-2.447,0.227-2.903,0.91
	c-0.313,0.484-0.397,0.684-0.484,0.883c-0.085,0.227-0.17,0.283-0.284,0.283c-0.085,0-0.142-0.084-0.142-0.256
	c0-0.283,0.569-2.73,0.625-2.959c0.057-0.17,0.171-0.541,0.285-0.541c0.199,0,0.483,0.285,1.253,0.342
	c0.824,0.086,1.904,0.143,2.247,0.143h10.67c0.91,0,1.564-0.057,2.02-0.143c0.428-0.057,0.685-0.143,0.797-0.143
	c0.143,0,0.143,0.172,0.143,0.342c0,0.854-0.085,2.816-0.085,3.131c0,0.256-0.085,0.369-0.199,0.369
	c-0.143,0-0.199-0.086-0.228-0.484l-0.029-0.312c-0.085-0.854-0.767-1.508-3.5-1.564l-3.585-0.057V92.886z"/>
<path d="M265.41,89.843c0-3.758,0-4.439-0.057-5.209c-0.056-0.824-0.199-1.223-1.024-1.336c-0.199-0.029-0.625-0.057-0.854-0.057
	c-0.085,0-0.199-0.115-0.199-0.199c0-0.143,0.114-0.199,0.398-0.199c1.138,0,2.817,0.057,2.96,0.057c0.256,0,2.36-0.057,3.129-0.057
	c1.594,0,3.358,0.141,4.668,1.053c0.625,0.455,1.735,1.621,1.735,3.301c0,1.791-0.74,3.527-3.074,5.52
	c2.049,2.561,3.786,4.752,5.235,6.26c1.339,1.365,2.163,1.594,2.79,1.678c0.483,0.086,0.739,0.086,0.882,0.086
	c0.142,0,0.227,0.113,0.227,0.199c0,0.143-0.143,0.199-0.598,0.199h-1.563c-1.424,0-2.049-0.143-2.676-0.484
	c-1.081-0.568-1.992-1.734-3.414-3.557c-1.053-1.309-2.163-2.873-2.703-3.527c-0.114-0.115-0.171-0.143-0.341-0.143l-3.188-0.057
	c-0.113,0-0.171,0.057-0.171,0.199v0.568c0,2.334,0,4.211,0.114,5.207c0.085,0.711,0.227,1.168,0.996,1.281
	c0.341,0.057,0.881,0.113,1.109,0.113c0.17,0,0.199,0.113,0.199,0.199c0,0.113-0.114,0.199-0.398,0.199
	c-1.366,0-2.959-0.086-3.073-0.086c-0.028,0-1.708,0.086-2.476,0.086c-0.256,0-0.397-0.057-0.397-0.199
	c0-0.086,0.057-0.199,0.199-0.199c0.227,0,0.54-0.057,0.767-0.113c0.485-0.113,0.541-0.57,0.655-1.281
	c0.142-0.996,0.142-2.902,0.142-5.234V89.843z M267.573,91.892c0,0.141,0.058,0.227,0.171,0.311c0.369,0.199,1.651,0.371,2.76,0.371
	c0.598,0,1.281-0.029,1.879-0.428c0.854-0.568,1.507-1.85,1.507-3.697c0-3.018-1.65-4.752-4.325-4.752
	c-0.739,0-1.536,0.084-1.792,0.141c-0.114,0.059-0.199,0.143-0.199,0.285V91.892z"/>
<path d="M289.825,83.326c0.313-0.797,0.428-0.939,0.598-0.939c0.257,0,0.343,0.342,0.598,0.883
	c0.456,1.025,4.468,11.012,6.005,14.682c0.91,2.164,1.593,2.477,2.133,2.646c0.371,0.115,0.741,0.143,0.996,0.143
	c0.144,0,0.313,0.057,0.313,0.199s-0.284,0.199-0.568,0.199c-0.37,0-2.22,0-3.955-0.057c-0.483-0.029-0.884-0.029-0.884-0.17
	c0-0.115,0.058-0.115,0.172-0.172c0.142-0.057,0.398-0.256,0.229-0.654l-2.248-5.549c-0.057-0.113-0.086-0.143-0.229-0.143h-5.775
	c-0.114,0-0.199,0.057-0.257,0.199l-1.422,3.871c-0.229,0.598-0.37,1.193-0.37,1.621c0,0.484,0.426,0.654,0.854,0.654h0.227
	c0.199,0,0.257,0.086,0.257,0.199c0,0.143-0.143,0.199-0.369,0.199c-0.598,0-1.964-0.086-2.248-0.086
	c-0.256,0-1.508,0.086-2.533,0.086c-0.312,0-0.483-0.057-0.483-0.199c0-0.113,0.114-0.199,0.229-0.199
	c0.17,0,0.54-0.027,0.739-0.057c1.138-0.143,1.621-0.996,2.104-2.219L289.825,83.326z M292.615,93.398
	c0.113,0,0.113-0.057,0.085-0.17l-2.477-6.629c-0.142-0.371-0.284-0.371-0.426,0l-2.333,6.629c-0.029,0.113,0,0.17,0.085,0.17
	H292.615z"/>
<path d="M307.385,94.111c0,2.332,0,4.238,0.112,5.234c0.087,0.711,0.172,1.168,0.911,1.281c0.37,0.057,0.911,0.113,1.138,0.113
	c0.144,0,0.199,0.113,0.199,0.199c0,0.113-0.112,0.199-0.398,0.199c-1.394,0-3.015-0.086-3.13-0.086
	c-0.142,0-1.707,0.086-2.475,0.086c-0.256,0-0.398-0.057-0.398-0.199c0-0.086,0.058-0.199,0.199-0.199
	c0.228,0,0.541-0.057,0.768-0.113c0.484-0.113,0.569-0.57,0.654-1.281c0.114-0.996,0.143-2.902,0.143-5.234v-4.268
	c0-3.758,0-4.439-0.058-5.209c-0.056-0.824-0.255-1.195-0.796-1.309c-0.284-0.057-0.598-0.084-0.768-0.084
	c-0.114,0-0.199-0.115-0.199-0.199c0-0.143,0.114-0.199,0.398-0.199c0.824,0,2.39,0.057,2.531,0.057
	c0.115,0,1.736-0.057,2.505-0.057c0.284,0,0.398,0.057,0.398,0.199c0,0.084-0.114,0.199-0.199,0.199c-0.172,0-0.342,0-0.627,0.057
	c-0.683,0.141-0.824,0.482-0.882,1.336c-0.027,0.77-0.027,1.451-0.027,5.209V94.111z"/>
<path d="M317.999,97.837c0.057,1.992,0.285,2.59,0.968,2.76c0.455,0.115,1.023,0.143,1.252,0.143c0.113,0,0.199,0.086,0.199,0.199
	c0,0.143-0.171,0.199-0.455,0.199c-1.424,0-2.42-0.086-2.646-0.086s-1.28,0.086-2.419,0.086c-0.255,0-0.398-0.027-0.398-0.199
	c0-0.113,0.086-0.199,0.199-0.199c0.199,0,0.654-0.027,1.024-0.143c0.626-0.17,0.712-0.824,0.712-3.016V83.724
	c0-0.967,0.143-1.223,0.342-1.223c0.284,0,0.712,0.482,0.966,0.74c0.398,0.396,4.041,4.268,7.911,8.252
	c2.476,2.559,5.15,5.434,5.918,6.23l-0.256-12.121c-0.028-1.566-0.17-2.105-0.939-2.248c-0.455-0.086-1.023-0.113-1.223-0.113
	c-0.171,0-0.199-0.143-0.199-0.229c0-0.143,0.199-0.17,0.483-0.17c1.138,0,2.333,0.057,2.619,0.057c0.283,0,1.108-0.057,2.133-0.057
	c0.257,0,0.456,0.027,0.456,0.17c0,0.086-0.114,0.229-0.286,0.229c-0.112,0-0.312,0-0.598,0.057
	c-0.824,0.17-0.881,0.654-0.881,2.105l-0.058,14.17c0,1.594-0.027,1.736-0.199,1.736c-0.256,0-0.513-0.199-1.906-1.48
	c-0.257-0.229-3.869-3.785-6.516-6.545c-2.902-3.043-5.719-6.004-6.487-6.857L317.999,97.837z"/>
<path d="M343.695,94.111c0,2.332,0,4.238,0.114,5.234c0.085,0.711,0.172,1.168,0.911,1.281c0.369,0.057,0.909,0.113,1.138,0.113
	c0.143,0,0.199,0.113,0.199,0.199c0,0.113-0.114,0.199-0.398,0.199c-1.394,0-3.017-0.086-3.129-0.086
	c-0.144,0-1.708,0.086-2.477,0.086c-0.257,0-0.398-0.057-0.398-0.199c0-0.086,0.058-0.199,0.199-0.199
	c0.229,0,0.54-0.057,0.769-0.113c0.483-0.113,0.568-0.57,0.655-1.281c0.112-0.996,0.142-2.902,0.142-5.234v-4.268
	c0-3.758,0-4.439-0.057-5.209c-0.058-0.824-0.257-1.195-0.797-1.309c-0.284-0.057-0.598-0.084-0.77-0.084
	c-0.112,0-0.199-0.115-0.199-0.199c0-0.143,0.115-0.199,0.398-0.199c0.826,0,2.391,0.057,2.534,0.057
	c0.112,0,1.735-0.057,2.503-0.057c0.285,0,0.397,0.057,0.397,0.199c0,0.084-0.112,0.199-0.199,0.199c-0.169,0-0.341,0-0.625,0.057
	c-0.683,0.141-0.824,0.482-0.882,1.336c-0.029,0.77-0.029,1.451-0.029,5.209V94.111z"/>
<path d="M354.311,97.837c0.057,1.992,0.285,2.59,0.968,2.76c0.455,0.115,1.023,0.143,1.252,0.143c0.112,0,0.199,0.086,0.199,0.199
	c0,0.143-0.172,0.199-0.456,0.199c-1.423,0-2.419-0.086-2.646-0.086c-0.228,0-1.28,0.086-2.42,0.086
	c-0.255,0-0.397-0.027-0.397-0.199c0-0.113,0.086-0.199,0.198-0.199c0.199,0,0.655-0.027,1.025-0.143
	c0.626-0.17,0.712-0.824,0.712-3.016V83.724c0-0.967,0.142-1.223,0.341-1.223c0.284,0,0.712,0.482,0.967,0.74
	c0.398,0.396,4.04,4.268,7.911,8.252c2.475,2.559,5.15,5.434,5.918,6.23l-0.257-12.121c-0.027-1.566-0.17-2.105-0.938-2.248
	c-0.455-0.086-1.023-0.113-1.223-0.113c-0.172,0-0.199-0.143-0.199-0.229c0-0.143,0.199-0.17,0.483-0.17
	c1.138,0,2.333,0.057,2.618,0.057c0.284,0,1.108-0.057,2.134-0.057c0.257,0,0.456,0.027,0.456,0.17c0,0.086-0.115,0.229-0.286,0.229
	c-0.112,0-0.312,0-0.598,0.057c-0.824,0.17-0.882,0.654-0.882,2.105l-0.057,14.17c0,1.594-0.027,1.736-0.199,1.736
	c-0.256,0-0.513-0.199-1.906-1.48c-0.257-0.229-3.869-3.785-6.516-6.545c-2.902-3.043-5.719-6.004-6.487-6.857L354.311,97.837z"/>
<path d="M389.683,94.964c0-1.963-0.058-2.248-1.082-2.447c-0.199-0.027-0.626-0.059-0.853-0.059c-0.086,0-0.199-0.113-0.199-0.197
	c0-0.17,0.113-0.199,0.398-0.199c1.138,0,2.816,0.057,2.958,0.057c0.114,0,1.68-0.057,2.447-0.057c0.284,0,0.398,0.029,0.398,0.199
	c0,0.084-0.114,0.197-0.199,0.197c-0.17,0-0.341,0-0.625,0.059c-0.685,0.113-0.884,0.484-0.939,1.336
	c-0.029,0.77-0.029,1.48-0.029,2.504v2.705c0,1.109-0.027,1.137-0.341,1.309c-1.594,0.824-3.869,1.08-5.32,1.08
	c-1.907,0-5.464-0.227-8.252-2.588c-1.536-1.281-2.988-3.871-2.988-6.887c0-3.869,1.965-6.602,4.183-7.939
	c2.248-1.365,4.753-1.535,6.659-1.535c1.594,0,3.356,0.283,3.841,0.398c0.512,0.113,1.395,0.256,2.02,0.256
	c0.257,0,0.313,0.113,0.313,0.227c0,0.342-0.142,0.996-0.142,3.416c0,0.398-0.114,0.512-0.286,0.512c-0.142,0-0.17-0.143-0.17-0.369
	c-0.029-0.314-0.171-1.025-0.569-1.594c-0.625-0.912-2.532-1.879-5.775-1.879c-1.509,0-3.329,0.113-5.235,1.564
	c-1.451,1.111-2.476,3.273-2.476,6.09c0,3.414,1.764,5.861,2.646,6.688c1.992,1.848,4.096,2.531,6.401,2.531
	c0.883,0,2.049-0.086,2.703-0.455c0.313-0.17,0.513-0.285,0.513-0.74V94.964z"/>
<path d="M241.598,51.605c0-7.209,0-8.537-0.096-10.055c-0.094-1.612-0.474-2.371-2.039-2.704c-0.379-0.094-1.187-0.142-1.85-0.142
	c-0.522,0-0.807-0.095-0.807-0.427s0.332-0.427,1.044-0.427c2.514,0,5.501,0.142,6.829,0.142c1.945,0,4.696-0.142,6.878-0.142
	c5.927,0,8.062,1.992,8.82,2.703c1.044,0.996,2.371,3.13,2.371,5.644c0,6.734-4.933,11.478-11.667,11.478
	c-0.236,0-0.758,0-0.996-0.048c-0.236-0.047-0.568-0.095-0.568-0.427c0-0.379,0.332-0.521,1.328-0.521
	c2.655,0,6.354-2.988,6.354-7.826c0-1.565-0.142-4.743-2.797-7.114c-1.708-1.565-3.653-1.85-4.743-1.85
	c-0.712,0-1.424,0.047-1.85,0.189c-0.238,0.095-0.38,0.379-0.38,0.901v18.971c0,4.363,0,8.11,0.237,10.149
	c0.143,1.328,0.427,2.371,1.85,2.561c0.664,0.096,1.708,0.189,2.418,0.189c0.522,0,0.76,0.143,0.76,0.381
	c0,0.332-0.38,0.475-0.901,0.475c-3.13,0-6.119-0.143-7.351-0.143c-1.092,0-4.079,0.143-5.977,0.143
	c-0.616,0-0.948-0.143-0.948-0.475c0-0.238,0.19-0.381,0.758-0.381c0.712,0,1.282-0.094,1.708-0.189
	c0.949-0.189,1.186-1.232,1.376-2.607c0.237-1.992,0.237-5.739,0.237-10.102V51.605z"/>
<path d="M271.715,54.877c0-6.118,0-7.257-0.048-8.537c-0.095-1.375-0.474-1.802-1.802-2.182c-0.332-0.095-1.044-0.142-1.66-0.142
	c-0.428,0-0.711-0.143-0.711-0.427c0-0.285,0.332-0.379,0.947-0.379c2.182,0,4.837,0.095,5.691,0.095
	c1.423,0,5.217-0.095,6.498-0.095c2.655,0,5.69,0.237,7.92,1.707c1.187,0.806,2.939,2.846,2.939,5.549
	c0,2.988-1.705,5.644-5.784,8.916c3.699,4.553,6.639,8.205,9.153,10.718c2.324,2.324,3.794,2.514,4.457,2.656
	c0.428,0.094,0.664,0.094,0.996,0.094s0.521,0.238,0.521,0.428c0,0.332-0.283,0.428-0.806,0.428h-3.984
	c-2.324,0-3.462-0.238-4.554-0.807c-1.801-0.902-3.367-2.799-5.69-5.929c-1.659-2.182-3.415-4.885-3.936-5.501
	c-0.237-0.237-0.476-0.285-0.76-0.285l-3.747-0.095c-0.189,0-0.332,0.095-0.332,0.332v0.569c0,3.747,0.048,6.876,0.238,8.584
	c0.142,1.186,0.332,1.943,1.611,2.135c0.618,0.094,1.519,0.141,2.04,0.141c0.332,0,0.521,0.238,0.521,0.428
	c0,0.285-0.332,0.428-0.854,0.428c-2.418,0-5.881-0.143-6.497-0.143c-0.808,0-3.463,0.143-5.122,0.143
	c-0.522,0-0.807-0.143-0.807-0.428c0-0.189,0.143-0.428,0.664-0.428c0.616,0,1.09-0.047,1.47-0.141
	c0.854-0.191,1.092-0.949,1.234-2.135c0.189-1.708,0.189-4.885,0.189-8.584V54.877z M277.025,58.007c0,0.427,0.096,0.569,0.38,0.711
	c0.902,0.285,2.134,0.379,3.178,0.379c1.66,0,2.229-0.142,2.941-0.664c1.279-0.901,2.703-2.656,2.703-5.976
	c0-5.691-3.889-7.161-6.356-7.161c-1.042,0-2.039,0.047-2.466,0.142c-0.284,0.095-0.38,0.237-0.38,0.569V58.007z"/>
<path d="M302.212,54.877c0-6.118,0.048-7.257-0.048-8.537c-0.095-1.423-0.475-1.802-1.802-2.182
	c-0.332-0.095-1.044-0.142-1.613-0.142c-0.475,0-0.711-0.143-0.711-0.427c0-0.285,0.284-0.379,0.9-0.379
	c2.229,0,5.028,0.095,6.261,0.095c1.044,0,3.841-0.095,5.358-0.095c0.618,0,0.902,0.095,0.902,0.379
	c0,0.284-0.236,0.427-0.664,0.427c-0.474,0-0.712,0.047-1.233,0.142c-1.09,0.19-1.422,0.759-1.518,2.182
	c-0.095,1.28-0.095,2.419-0.095,8.537v5.644c0,5.881,1.138,8.157,3.178,9.77c1.85,1.471,3.841,1.613,5.265,1.613
	c1.802,0,3.937-0.521,5.597-2.135c2.323-2.181,2.418-5.691,2.418-9.817v-5.075c0-6.118-0.047-7.257-0.095-8.537
	c-0.096-1.375-0.428-1.802-1.755-2.182c-0.332-0.095-1.044-0.142-1.518-0.142c-0.475,0-0.711-0.143-0.711-0.427
	c0-0.285,0.284-0.379,0.853-0.379c2.135,0,4.933,0.095,4.98,0.095c0.475,0,3.273-0.095,4.885-0.095c0.57,0,0.854,0.095,0.854,0.379
	c0,0.284-0.238,0.427-0.712,0.427c-0.475,0-0.712,0.047-1.233,0.142c-1.139,0.19-1.422,0.759-1.518,2.182
	c-0.047,1.28-0.095,2.419-0.095,8.537v4.316c0,4.505-0.474,9.247-3.983,12.14c-2.94,2.467-6.118,2.895-8.821,2.895
	c-2.182,0-6.499-0.096-9.534-2.752c-2.134-1.85-3.793-4.837-3.793-10.67V54.877z"/>
<path d="M339.111,54.877c0-6.118,0-7.257-0.047-8.537c-0.096-1.375-0.521-1.85-1.423-2.134c-0.475-0.142-0.996-0.189-1.518-0.189
	c-0.427,0-0.664-0.095-0.664-0.475c0-0.237,0.332-0.332,0.995-0.332c1.566,0,4.411,0.095,5.597,0.095
	c1.044,0,3.747-0.095,5.359-0.095c0.521,0,0.854,0.095,0.854,0.332c0,0.38-0.237,0.475-0.664,0.475s-0.759,0.047-1.233,0.142
	c-1.138,0.19-1.47,0.759-1.563,2.182c-0.096,1.28-0.096,2.419-0.096,8.537v7.114c0,3.889,0,7.114,0.189,8.82
	c0.143,1.092,0.427,1.707,1.66,1.898c0.569,0.094,1.518,0.141,2.134,0.141c0.476,0,0.665,0.238,0.665,0.428
	c0,0.285-0.333,0.428-0.808,0.428c-2.75,0-5.597-0.143-6.734-0.143c-0.948,0-3.793,0.143-5.453,0.143
	c-0.521,0-0.808-0.143-0.808-0.428c0-0.189,0.144-0.428,0.664-0.428c0.617,0,1.092-0.047,1.472-0.141
	c0.854-0.191,1.09-0.76,1.231-1.945c0.19-1.659,0.19-4.885,0.19-8.773V54.877z"/>
<path d="M363.963,45.676l-6.212,0.143c-2.418,0.047-3.415,0.332-4.031,1.233c-0.427,0.569-0.616,1.091-0.712,1.375
	c-0.094,0.332-0.189,0.522-0.474,0.522s-0.38-0.238-0.38-0.664c0-0.665,0.808-4.553,0.901-4.885
	c0.094-0.521,0.237-0.759,0.474-0.759c0.332,0,0.76,0.332,1.804,0.474c1.231,0.143,2.798,0.19,4.173,0.19h16.931
	c1.329,0,2.229-0.095,2.847-0.19c0.664-0.094,0.996-0.189,1.139-0.189c0.283,0,0.332,0.237,0.332,0.854
	c0,0.853-0.097,3.841-0.097,4.885c-0.046,0.427-0.142,0.664-0.378,0.664c-0.332,0-0.428-0.19-0.476-0.807l-0.046-0.427
	c-0.096-1.043-1.186-2.276-4.933-2.324l-5.265-0.095v16.315c0,3.699,0.047,6.876,0.237,8.631c0.142,1.139,0.38,1.896,1.612,2.088
	c0.569,0.094,1.518,0.141,2.135,0.141c0.474,0,0.664,0.238,0.664,0.428c0,0.285-0.332,0.428-0.808,0.428
	c-2.75,0-5.549-0.143-6.734-0.143c-0.948,0-3.794,0.143-5.453,0.143c-0.522,0-0.808-0.143-0.808-0.428
	c0-0.189,0.144-0.428,0.665-0.428c0.616,0,1.138-0.047,1.47-0.141c0.854-0.191,1.091-0.949,1.232-2.135
	c0.189-1.708,0.189-4.885,0.189-8.584V45.676z"/>
<path d="M393.986,45.676l-6.213,0.143c-2.419,0.047-3.415,0.332-4.031,1.233c-0.428,0.569-0.617,1.091-0.712,1.375
	c-0.096,0.332-0.189,0.522-0.474,0.522c-0.285,0-0.38-0.238-0.38-0.664c0-0.665,0.806-4.553,0.901-4.885
	c0.095-0.521,0.236-0.759,0.475-0.759c0.332,0,0.758,0.332,1.802,0.474c1.233,0.143,2.797,0.19,4.173,0.19h16.932
	c1.328,0,2.229-0.095,2.846-0.19c0.664-0.094,0.996-0.189,1.138-0.189c0.286,0,0.332,0.237,0.332,0.854
	c0,0.853-0.094,3.841-0.094,4.885c-0.048,0.427-0.143,0.664-0.38,0.664c-0.332,0-0.426-0.19-0.474-0.807l-0.048-0.427
	c-0.095-1.043-1.187-2.276-4.934-2.324l-5.263-0.095v16.315c0,3.699,0.046,6.876,0.236,8.631c0.142,1.139,0.38,1.896,1.613,2.088
	c0.568,0.094,1.518,0.141,2.134,0.141c0.474,0,0.664,0.238,0.664,0.428c0,0.285-0.332,0.428-0.807,0.428
	c-2.751,0-5.549-0.143-6.734-0.143c-0.949,0-3.795,0.143-5.454,0.143c-0.522,0-0.807-0.143-0.807-0.428
	c0-0.189,0.143-0.428,0.664-0.428c0.616,0,1.138-0.047,1.47-0.141c0.854-0.191,1.092-0.949,1.233-2.135
	c0.19-1.708,0.19-4.885,0.19-8.584V45.676z"/>
</svg>
