<?xml version="1.0" encoding="utf-8"?>
<!-- Generator: Adobe Illustrator 15.0.2, SVG Export Plug-In  -->
<!DOCTYPE svg PUBLIC "-//W3C//DTD SVG 1.1//EN" "http://www.w3.org/Graphics/SVG/1.1/DTD/svg11.dtd" [
	<!ENTITY ns_flows "http://ns.adobe.com/Flows/1.0/">
]>
<svg version="1.1"
	 xmlns="http://www.w3.org/2000/svg" xmlns:xlink="http://www.w3.org/1999/xlink" xmlns:a="http://ns.adobe.com/AdobeSVGViewerExtensions/3.0/"
	 x="0px" y="0px" width="432px" height="153px" viewBox="-11.3413086 -7.340332 432 153"
	 overflow="visible" enable-background="new -11.3413086 -7.340332 432 153" xml:space="preserve">
<defs>
</defs>
<path d="M19.3154297,70.8208008c4.8168945,0,6.6591797-1.1816406,7.4145508-2.5981445
	c0.4248047-0.7553711,0.7080078-1.6054688,0.8500977-2.2670898c0.0942383-0.472168,0.1884766-0.7553711,0.4716797-0.7553711
	c0.3779297,0,0.4726562,0.3305664,0.4726562,1.4638672c0,1.5112305-0.6137695,4.581543-0.9443359,5.7612305
	c-0.2363281,0.8505859-0.5673828,1.2275391-1.4169922,1.2275391c-7.8867188,0-15.8208008-0.2353516-25.3603516-0.2353516
	C0.2832031,73.4174805,0,73.2758789,0,72.9448242c0-0.3291016,0.1416016-0.5664062,0.7084961-1.4169922
	c6.6586914-10.3891602,13.6484375-21.0620117,19.9765625-31.0268555h-9.2568359
	c-2.4082031,0-5.2890625,0.1416016-6.800293,0.9921875c-1.5585938,0.8496094-2.4082031,2.597168-2.5498047,3.6831055
	c-0.0952148,0.6611328-0.2836914,0.8505859-0.5668945,0.8505859c-0.3305664,0-0.3779297-0.2363281-0.3779297-0.8032227
	c0-1.0864258,0.7089844-5.3837891,0.9448242-6.800293c0.0942383-0.6616211,0.2827148-0.8979492,0.5664062-0.8979492
	c0.4248047,0,0.7084961,0.2836914,1.8891602,0.3310547c4.4863281,0.1889648,6.7529297,0.1416016,8.6894531,0.1416016h14.4038086
	c0.4726562,0,0.8027344,0.1411133,0.8027344,0.3774414c0,0.2836914-0.1884766,0.5668945-0.3779297,0.8974609
	C21.5351562,49.8515625,14.3569336,60.6665039,7.6977539,70.8208008H19.3154297z"/>
<path d="M38.6313477,63.4057617c-0.2358398,0-0.2827148,0.046875-0.3774414,0.2832031l-2.2197266,5.4306641
	c-0.4248047,0.9921875-0.6137695,1.984375-0.6137695,2.4560547c0,0.7089844,0.3779297,1.1328125,1.652832,1.1328125H37.6875
	c0.519043,0,0.6137695,0.1884766,0.6137695,0.4257812c0,0.3310547-0.2358398,0.4248047-0.6611328,0.4248047
	c-1.3701172,0-3.3056641-0.1416016-4.628418-0.1416016c-0.4248047,0-2.6445312,0.1416016-4.8168945,0.1416016
	c-0.5195312,0-0.7558594-0.09375-0.7558594-0.4248047c0-0.2373047,0.1420898-0.4257812,0.4731445-0.4257812
	c0.3774414,0,0.8496094-0.046875,1.2270508-0.046875c1.8891602-0.2832031,2.597168-1.5117188,3.4477539-3.5419922
	l10.8623047-25.0766602c0.4716797-1.1337891,0.8022461-1.605957,1.2270508-1.605957
	c0.6142578,0,0.8032227,0.3779297,1.2285156,1.2753906c0.9916992,2.2197266,7.934082,18.465332,10.578125,24.5576172
	c1.6064453,3.6357422,2.7866211,4.1552734,3.5424805,4.2978516c0.6137695,0.09375,1.0864258,0.140625,1.5585938,0.140625
	c0.3774414,0,0.5664062,0.1416016,0.5664062,0.4257812c0,0.3310547-0.2363281,0.4248047-1.7944336,0.4248047
	c-1.4643555,0-4.4868164,0-7.9814453-0.09375c-0.7553711-0.0478516-1.2280273-0.0478516-1.2280273-0.3310547
	c0-0.2373047,0.0947266-0.3779297,0.5200195-0.4257812c0.2832031-0.046875,0.5664062-0.4238281,0.3779297-0.8964844
	l-3.2119141-8.1230469c-0.0942383-0.2363281-0.2358398-0.2832031-0.4248047-0.2832031H38.6313477z M47.5107422,61.1855469
	c0.1879883,0,0.2358398-0.09375,0.1879883-0.2358398l-3.9194336-10.0585938
	c-0.046875-0.1420898-0.0942383-0.3779297-0.1889648-0.3779297c-0.1411133,0-0.1889648,0.2358398-0.2358398,0.3779297
	L39.340332,60.9023438c-0.0947266,0.1894531,0,0.2832031,0.1416016,0.2832031H47.5107422z"/>
<path d="M69.5185547,63.1220703c0-2.1723633-0.3779297-3.0224609-0.9443359-4.203125
	c-0.2836914-0.6137695-5.9506836-9.4453125-7.4145508-11.5703125c-1.0390625-1.4638672-1.8891602-2.4086914-2.6923828-2.8330078
	c-0.519043-0.2836914-1.2270508-0.5195312-1.7470703-0.5195312c-0.3300781,0-0.6137695-0.1420898-0.6137695-0.425293
	c0-0.2836914,0.2836914-0.3779297,0.8032227-0.3779297c0.7080078,0,3.824707,0.0942383,5.1943359,0.0942383
	c0.8969727,0,2.8334961-0.0942383,4.7226562-0.0942383c0.3779297,0,0.6142578,0.0942383,0.6142578,0.3779297
	c0,0.3305664-0.2836914,0.3305664-0.9448242,0.5195312c-0.3305664,0.09375-0.5664062,0.2832031-0.5664062,0.6137695
	s0.1884766,0.8032227,0.519043,1.3691406c0.7558594,1.2285156,6.1865234,10.6264648,6.8950195,11.7597656
	c0.5200195-0.9448242,5.5727539-9.5395508,6.1870117-10.7675781c0.4243164-0.8969727,0.6137695-1.605957,0.6137695-2.1254883
	c0-0.3779297-0.1894531-0.7558594-0.8974609-0.8969727c-0.3779297-0.0947266-0.7558594-0.1416016-0.7558594-0.472168
	c0-0.2836914,0.2363281-0.3779297,0.7084961-0.3779297c1.3696289,0,2.8339844,0.0942383,4.0620117,0.0942383
	c0.8969727,0,3.6357422-0.0942383,4.4389648-0.0942383c0.472168,0,0.7558594,0.0942383,0.7558594,0.3305664
	c0,0.2832031-0.3310547,0.4726562-0.8032227,0.4726562c-0.4248047,0-1.1806641,0.1879883-1.7944336,0.472168
	c-0.8974609,0.4248047-1.2749023,0.8027344-2.1723633,1.8886719c-1.3696289,1.6054688-7.3203125,11.1450195-8.0756836,12.8457031
	c-0.6137695,1.4638672-0.5195312,2.6918945-0.5195312,4.0141602v3.2114258c0,0.6611328,0,2.3134766,0.0942383,4.0146484
	c0.0942383,1.1796875,0.472168,1.9355469,1.7006836,2.125c0.6137695,0.09375,1.5112305,0.140625,2.0776367,0.140625
	c0.472168,0,0.7084961,0.2363281,0.7084961,0.4257812c0,0.2832031-0.3310547,0.4248047-0.8969727,0.4248047
	c-2.5981445,0-5.3842773-0.1416016-6.5175781-0.1416016c-1.0385742,0-3.8251953,0.1416016-5.3842773,0.1416016
	c-0.565918,0-0.8969727-0.09375-0.8969727-0.4248047c0-0.1894531,0.1889648-0.4257812,0.6611328-0.4257812
	c0.5668945,0,1.0864258-0.046875,1.4643555-0.140625c0.8500977-0.1894531,1.1806641-0.9453125,1.2749023-2.125
	c0.1416016-1.7011719,0.1416016-3.3535156,0.1416016-4.0146484V63.1220703z"/>
<path d="M95.4941406,68.0805664c0.0947266,3.1162109,0.6142578,4.0615234,1.4169922,4.3447266
	c0.7084961,0.2363281,1.5112305,0.2832031,2.1723633,0.2832031c0.472168,0,0.7084961,0.1884766,0.7084961,0.4257812
	c0,0.3310547-0.3779297,0.4248047-0.9448242,0.4248047c-2.6918945,0-4.628418-0.1416016-5.3837891-0.1416016
	c-0.3774414,0-2.3608398,0.1416016-4.4863281,0.1416016c-0.5668945,0-0.9443359-0.046875-0.9443359-0.4248047
	c0-0.2373047,0.2832031-0.4257812,0.6611328-0.4257812c0.5668945,0,1.3227539-0.046875,1.8886719-0.1884766
	c1.0864258-0.2832031,1.2280273-1.3701172,1.2753906-4.8642578l0.3779297-23.8017578
	c0-0.8032227,0.2832031-1.3696289,0.7080078-1.3696289c0.5195312,0,1.0864258,0.6137695,1.7949219,1.3222656
	c0.5195312,0.5195312,6.7529297,6.8950195,12.7978516,12.7983398c2.8339844,2.7861328,8.359375,8.453125,8.9736328,9.0205078
	h0.1884766l-0.4248047-17.8515625c-0.0473633-2.4560547-0.425293-3.1645508-1.4169922-3.5419922
	c-0.6137695-0.2358398-1.6054688-0.2358398-2.1723633-0.2358398c-0.5195312,0-0.6611328-0.1894531-0.6611328-0.425293
	c0-0.3305664,0.4248047-0.3779297,1.0390625-0.3779297c2.1723633,0,4.3916016,0.0942383,5.2890625,0.0942383
	c0.4726562,0,2.0307617-0.0942383,4.0615234-0.0942383c0.5668945,0,0.9448242,0.0473633,0.9448242,0.3779297
	c0,0.2358398-0.2368164,0.425293-0.7089844,0.425293c-0.4248047,0-0.7553711,0-1.2749023,0.1411133
	c-1.1333008,0.3310547-1.4638672,1.0390625-1.5112305,3.3061523l-0.472168,25.3129883
	c0,0.8964844-0.3300781,1.2744141-0.6611328,1.2744141c-0.7080078,0-1.2753906-0.4238281-1.7001953-0.8496094
	c-2.5976562-2.4082031-7.7919922-7.3671875-12.137207-11.5703125c-4.5336914-4.3447266-8.9257812-9.2084961-9.7280273-9.9174805
	h-0.1420898L95.4941406,68.0805664z"/>
<path d="M134.4091797,63.4057617c-0.2358398,0-0.2832031,0.046875-0.3779297,0.2832031l-2.2192383,5.4306641
	c-0.425293,0.9921875-0.6137695,1.984375-0.6137695,2.4560547c0,0.7089844,0.3779297,1.1328125,1.652832,1.1328125h0.6137695
	c0.5195312,0,0.6137695,0.1884766,0.6137695,0.4257812c0,0.3310547-0.2358398,0.4248047-0.6611328,0.4248047
	c-1.3691406,0-3.3056641-0.1416016-4.6279297-0.1416016c-0.425293,0-2.6450195,0.1416016-4.8173828,0.1416016
	c-0.5195312,0-0.7553711-0.09375-0.7553711-0.4248047c0-0.2373047,0.1416016-0.4257812,0.472168-0.4257812
	c0.3779297,0,0.8500977-0.046875,1.2280273-0.046875c1.8891602-0.2832031,2.5976562-1.5117188,3.4472656-3.5419922
	l10.8618164-25.0766602c0.472168-1.1337891,0.8032227-1.605957,1.2280273-1.605957
	c0.6142578,0,0.8032227,0.3779297,1.2280273,1.2753906c0.9916992,2.2197266,7.9335938,18.465332,10.5786133,24.5576172
	c1.6054688,3.6357422,2.7866211,4.1552734,3.5419922,4.2978516c0.6137695,0.09375,1.0859375,0.140625,1.5581055,0.140625
	c0.378418,0,0.5668945,0.1416016,0.5668945,0.4257812c0,0.3310547-0.2358398,0.4248047-1.7944336,0.4248047
	c-1.4638672,0-4.4863281,0-7.980957-0.09375c-0.7558594-0.0478516-1.2280273-0.0478516-1.2280273-0.3310547
	c0-0.2373047,0.0942383-0.3779297,0.519043-0.4257812c0.2836914-0.046875,0.5668945-0.4238281,0.3779297-0.8964844
	l-3.2114258-8.1230469c-0.0942383-0.2363281-0.2358398-0.2832031-0.4248047-0.2832031H134.4091797z M143.2880859,61.1855469
	c0.1884766,0,0.2358398-0.09375,0.1884766-0.2358398l-3.9194336-10.0585938
	c-0.0473633-0.1420898-0.0947266-0.3779297-0.1889648-0.3779297c-0.1420898,0-0.1889648,0.2358398-0.2358398,0.3779297
	l-4.0146484,10.0112305c-0.0942383,0.1894531,0,0.2832031,0.1416016,0.2832031H143.2880859z"/>
<path d="M162.4628906,54.8105469c0-6.0927734,0-7.2260742-0.0473633-8.5009766
	c-0.0947266-1.3696289-0.472168-1.7939453-1.7949219-2.1723633c-0.3300781-0.0942383-1.0385742-0.1411133-1.652832-0.1411133
	c-0.4248047,0-0.7080078-0.1420898-0.7080078-0.425293c0-0.2836914,0.3300781-0.3779297,0.9443359-0.3779297
	c2.1723633,0,4.8168945,0.0942383,5.6201172,0.0942383c2.0776367,0,4.8164062-0.0942383,6.2333984-0.0942383
	c7.5092773,0,8.831543,3.8725586,8.831543,5.9975586c0,3.1171875-2.3144531,5.5253906-4.6757812,7.0366211
	c3.4003906,1.0864258,7.6508789,3.9672852,7.6508789,8.6899414c0,4.2973633-3.4003906,8.7358398-11.0512695,8.7358398
	c-0.472168,0-1.8886719-0.0458984-3.3056641-0.140625c-1.4165039-0.046875-2.8803711-0.0947266-3.5415039-0.0947266
	c-0.4726562,0-1.3696289,0.0478516-2.3613281,0.0478516c-0.9921875,0.046875-2.0307617,0.09375-2.8813477,0.09375
	c-0.519043,0-0.8022461-0.1416016-0.8022461-0.4248047c0-0.1894531,0.1416016-0.4257812,0.6611328-0.4257812
	c0.6137695,0,1.0864258-0.046875,1.4638672-0.140625c0.8500977-0.1894531,1.0859375-0.9453125,1.2275391-2.125
	c0.1894531-1.7011719,0.1894531-4.8647461,0.1894531-8.5483398V54.8105469z M167.8466797,55.4716797
	c0,0.3305664,0.1416016,0.3779297,0.2827148,0.4248047c0.3779297,0.0942383,0.9921875,0.1416016,1.9365234,0.1416016
	c1.3696289,0,2.550293-0.1416016,3.2583008-0.7080078c1.0869141-0.8505859,1.8891602-2.3144531,1.8891602-4.2509766
	c0-2.6914062-1.6054688-6.0444336-5.1948242-6.0444336c-0.5664062,0-1.3691406,0-1.7939453,0.0947266
	c-0.2836914,0.046875-0.3779297,0.2358398-0.3779297,0.6611328V55.4716797z M167.8466797,67.2783203
	c0,2.644043,0.1416016,3.4467773,1.4638672,3.9672852c1.0859375,0.4248047,2.0302734,0.4716797,2.9750977,0.4716797
	c2.2197266,0,5.1000977-1.2275391,5.1000977-5.6674805c0-1.8417969-0.8022461-5.0053711-3.9194336-7.1308594
	c-0.8500977-0.6137695-1.9833984-1.0390625-3.5893555-1.0390625h-1.7944336c-0.1416016,0-0.2358398,0.0473633-0.2358398,0.2832031
	V67.2783203z"/>
<path d="M21.4506836,87.6723633c0-4.4199219,0-5.2128906-0.0566406-6.1210938
	c-0.0566406-0.9619141-0.2836914-1.4150391-1.2182617-1.6132812c-0.2270508-0.0576172-0.7080078-0.0859375-0.9638672-0.0859375
	c-0.1132812,0-0.2265625-0.0566406-0.2265625-0.1699219c0-0.1699219,0.1420898-0.2265625,0.4536133-0.2265625
	c1.2749023,0,2.9750977,0.0849609,3.2016602,0.0849609c0.6235352,0,2.2666016-0.0849609,3.5703125-0.0849609
	c3.5415039,0,4.8164062,1.1894531,5.2695312,1.6142578c0.6230469,0.5947266,1.4165039,1.8701172,1.4165039,3.3720703
	c0,4.0234375-2.9462891,6.7421875-6.9702148,6.7421875c-0.1411133,0-0.4526367,0-0.5947266-0.0273438
	c-0.1416016,0-0.3115234-0.0566406-0.3115234-0.1982422c0-0.2255859,0.1699219-0.2548828,0.7651367-0.2548828
	c2.7485352,0,4.9013672-2.0117188,4.9013672-4.6181641c0-0.9345703-0.0849609-2.8330078-1.5869141-4.3632812
	c-1.5009766-1.5302734-3.2294922-1.4169922-3.8813477-1.4169922c-0.4814453,0-0.9633789,0.0566406-1.2177734,0.1699219
	c-0.1708984,0.0576172-0.2270508,0.2558594-0.2270508,0.5390625v11.6445312c0,2.7207031,0,4.9589844,0.1411133,6.1484375
	c0.0859375,0.8212891,0.2553711,1.4443359,1.1054688,1.5576172c0.3964844,0.0576172,1.0195312,0.1132812,1.2749023,0.1132812
	c0.1699219,0,0.2270508,0.0859375,0.2270508,0.1708984c0,0.1416016-0.1420898,0.2265625-0.4536133,0.2265625
	c-1.5581055,0-3.3432617-0.0849609-3.4848633-0.0849609c-0.0849609,0-1.8701172,0.0849609-2.7197266,0.0849609
	c-0.3120117,0-0.4536133-0.0566406-0.4536133-0.2265625c0-0.0849609,0.0571289-0.1708984,0.2265625-0.1708984
	c0.2548828,0,0.5947266-0.0556641,0.8496094-0.1132812c0.5673828-0.1132812,0.7084961-0.7363281,0.8217773-1.5576172
	c0.1420898-1.1894531,0.1420898-3.4277344,0.1420898-6.1484375V87.6723633z"/>
<path d="M40.4926758,89.6274414c0-3.7412109,0-4.4199219-0.0561523-5.1855469
	c-0.0571289-0.8222656-0.1987305-1.21875-1.0200195-1.3310547c-0.1987305-0.0283203-0.6240234-0.0566406-0.8500977-0.0566406
	c-0.0854492,0-0.1987305-0.1142578-0.1987305-0.1982422c0-0.1425781,0.1132812-0.1982422,0.3969727-0.1982422
	c1.1333008,0,2.7480469,0.0556641,2.8896484,0.0556641c0.1704102,0,5.3833008,0.0283203,5.9501953,0
	c0.4814453-0.0273438,0.9350586-0.1132812,1.1333008-0.140625c0.1132812-0.0292969,0.2265625-0.1132812,0.3398438-0.1132812
	c0.0849609,0,0.1132812,0.1132812,0.1132812,0.2265625c0,0.1699219-0.1416016,0.4521484-0.1982422,1.1318359
	c-0.0283203,0.2275391-0.0844727,1.3046875-0.1416016,1.5878906c-0.0283203,0.1132812-0.1132812,0.2548828-0.2265625,0.2548828
	c-0.1416016,0-0.1982422-0.1132812-0.1982422-0.3115234c0-0.1708984-0.0283203-0.5673828-0.1416016-0.8505859
	c-0.1699219-0.3964844-0.425293-0.5664062-1.7851562-0.7363281c-0.4248047-0.0566406-3.3149414-0.0849609-3.5981445-0.0849609
	c-0.1132812,0-0.1416016,0.0849609-0.1416016,0.2548828v6.5449219c0,0.1699219,0,0.2558594,0.1416016,0.2558594
	c0.3115234,0,3.5981445,0,4.1645508-0.0576172c0.5952148-0.0566406,0.9638672-0.0859375,1.21875-0.3398438
	c0.1699219-0.1699219,0.2832031-0.3115234,0.3681641-0.3115234s0.1416016,0.0566406,0.1416016,0.1982422
	s-0.1416016,0.5380859-0.1982422,1.3320312c-0.0566406,0.4804688-0.1132812,1.3876953-0.1132812,1.5576172
	c0,0.1982422-0.0566406,0.453125-0.2265625,0.453125c-0.1137695,0-0.1704102-0.0839844-0.1704102-0.2265625
	c0-0.2265625,0-0.4814453-0.112793-0.7929688c-0.0854492-0.3398438-0.3120117-0.6230469-1.2749023-0.7373047
	c-0.6801758-0.0839844-3.34375-0.1132812-3.769043-0.1132812c-0.1411133,0-0.1694336,0.0849609-0.1694336,0.1708984v2.0117188
	c0,0.8212891-0.0288086,3.625,0,4.1074219c0.0561523,1.6162109,0.5097656,1.9277344,2.9746094,1.9277344
	c0.6518555,0,1.8417969,0,2.4936523-0.2558594c0.6513672-0.2832031,0.9916992-0.7080078,1.1328125-1.671875
	c0.0571289-0.2832031,0.1132812-0.3671875,0.2553711-0.3671875c0.1416016,0,0.1699219,0.1982422,0.1699219,0.3671875
	c0,0.1699219-0.1982422,1.8144531-0.3393555,2.3242188c-0.1708984,0.6220703-0.425293,0.6220703-1.3891602,0.6220703
	c-1.8701172,0-3.3149414-0.0556641-4.3349609-0.0839844c-1.0478516-0.0566406-1.699707-0.0566406-2.0683594-0.0566406
	c-0.0566406,0-0.5385742,0-1.0761719,0.0283203c-0.4819336,0.0283203-1.0488281,0.0566406-1.4453125,0.0566406
	c-0.2548828,0-0.3964844-0.0566406-0.3964844-0.1992188c0-0.0839844,0.0561523-0.1982422,0.1982422-0.1982422
	c0.2270508,0,0.5385742-0.0839844,0.7651367-0.1132812c0.4814453-0.0849609,0.5380859-0.5654297,0.6518555-1.2744141
	c0.1411133-0.9912109,0.1411133-2.8896484,0.1411133-5.2128906V89.6274414z"/>
<path d="M58.0615234,89.6274414c0-3.7412109,0-4.4199219-0.0566406-5.1855469
	c-0.0566406-0.8222656-0.1987305-1.21875-1.0200195-1.3310547c-0.1982422-0.0283203-0.6235352-0.0566406-0.8500977-0.0566406
	c-0.0849609,0-0.1982422-0.1142578-0.1982422-0.1982422c0-0.1425781,0.1132812-0.1982422,0.3964844-0.1982422
	c1.1337891,0,2.8056641,0.0556641,2.9462891,0.0556641c0.2558594,0,2.3520508-0.0556641,3.1171875-0.0556641
	c1.5869141,0,3.3432617,0.140625,4.6464844,1.0478516c0.6235352,0.4541016,1.7285156,1.6152344,1.7285156,3.2871094
	c0,1.7851562-0.7373047,3.5126953-3.0605469,5.4951172c2.0405273,2.5507812,3.769043,4.7324219,5.2138672,6.2353516
	c1.331543,1.3583984,2.1533203,1.5859375,2.7768555,1.6708984c0.480957,0.0839844,0.7363281,0.0839844,0.8779297,0.0839844
	s0.2265625,0.1142578,0.2265625,0.1982422c0,0.1425781-0.1411133,0.1992188-0.5947266,0.1992188h-1.5581055
	c-1.4169922,0-2.0400391-0.1425781-2.6635742-0.4814453c-1.0766602-0.5673828-1.9829102-1.7285156-3.3999023-3.5419922
	c-1.0483398-1.3027344-2.1533203-2.8613281-2.6918945-3.5136719c-0.112793-0.1132812-0.1699219-0.140625-0.3398438-0.140625
	l-3.1733398-0.0576172c-0.1132812,0-0.1699219,0.0576172-0.1699219,0.1982422v0.5664062
	c0,2.3242188,0,4.1943359,0.1132812,5.1855469c0.0849609,0.7089844,0.2265625,1.1611328,0.9916992,1.2744141
	c0.340332,0.0576172,0.878418,0.1132812,1.1049805,0.1132812c0.1699219,0,0.1982422,0.1142578,0.1982422,0.1982422
	c0,0.1142578-0.1132812,0.1992188-0.3969727,0.1992188c-1.359375,0-2.9467773-0.0849609-3.0600586-0.0849609
	c-0.0273438,0-1.6992188,0.0849609-2.4643555,0.0849609c-0.2553711,0-0.3969727-0.0566406-0.3969727-0.1992188
	c0-0.0839844,0.0566406-0.1982422,0.1987305-0.1982422c0.2265625,0,0.5385742-0.0556641,0.7646484-0.1132812
	c0.4814453-0.1132812,0.5380859-0.5654297,0.6518555-1.2744141c0.1416016-0.9912109,0.1416016-2.8896484,0.1416016-5.2128906
	V89.6274414z M60.2148438,91.6674805c0,0.140625,0.0566406,0.2255859,0.1699219,0.3105469
	c0.3681641,0.1982422,1.6430664,0.3691406,2.7485352,0.3691406c0.5947266,0,1.2749023-0.0283203,1.8696289-0.4248047
	c0.8500977-0.5664062,1.5019531-1.8417969,1.5019531-3.6835938c0-3.0029297-1.6435547-4.7314453-4.3066406-4.7314453
	c-0.7363281,0-1.5297852,0.0839844-1.7851562,0.1416016c-0.1132812,0.0566406-0.1982422,0.140625-0.1982422,0.2832031V91.6674805z"
	/>
<path d="M76.7075195,100.534668c-0.3398438-0.1699219-0.3676758-0.2548828-0.3676758-0.90625
	c0-1.1904297,0.1132812-2.1523438,0.1411133-2.5498047c0-0.2548828,0.0571289-0.3964844,0.1982422-0.3964844
	c0.1416016,0,0.2265625,0.0849609,0.2265625,0.2832031s0,0.5371094,0.0849609,0.8779297
	c0.3969727,1.7578125,2.2670898,2.3808594,3.9384766,2.3808594c2.465332,0,3.7402344-1.3896484,3.7402344-3.2021484
	c0-1.7275391-0.9350586-2.5498047-3.1450195-4.1933594l-1.1333008-0.8505859
	c-2.6918945-2.0107422-3.5703125-3.484375-3.5703125-5.15625c0-2.8339844,2.2387695-4.5332031,5.5253906-4.5332031
	c0.9912109,0,1.9833984,0.1416016,2.578125,0.2841797c0.4819336,0.1132812,0.6801758,0.1132812,0.878418,0.1132812
	s0.2548828,0.0273438,0.2548828,0.1699219c0,0.1132812-0.112793,0.90625-0.112793,2.5498047
	c0,0.3671875-0.0288086,0.5380859-0.1987305,0.5380859c-0.1704102,0-0.1987305-0.1132812-0.2265625-0.3115234
	c-0.0283203-0.2832031-0.2265625-0.9355469-0.3686523-1.1904297c-0.1699219-0.2822266-0.9912109-1.1894531-3.2299805-1.1894531
	c-1.8134766,0-3.3149414,0.9072266-3.3149414,2.6064453c0,1.5302734,0.7651367,2.4082031,3.2299805,4.0800781l0.7084961,0.4814453
	c3.03125,2.0673828,4.0800781,3.7392578,4.0800781,5.8085938c0,1.4160156-0.5385742,2.9462891-2.3237305,4.1074219
	c-1.0483398,0.6806641-2.6064453,0.8505859-3.9663086,0.8505859
	C79.1728516,101.1870117,77.7275391,101.0170898,76.7075195,100.534668z"/>
<path d="M102.6625977,82.3168945c5.6103516,0,9.8603516,3.4287109,9.8603516,9.0390625
	c0,5.3828125-3.9951172,9.8310547-10.0014648,9.8310547c-6.8286133,0-9.746582-5.1289062-9.746582-9.4628906
	C92.7749023,87.8422852,95.777832,82.3168945,102.6625977,82.3168945z M103.2294922,100.1958008
	c2.2387695,0,6.7431641-1.1904297,6.7431641-8.1611328c0-5.7792969-3.5131836-8.8115234-7.4511719-8.8115234
	c-4.1655273,0-7.168457,2.6074219-7.168457,7.8486328C95.3530273,96.6821289,98.7246094,100.1958008,103.2294922,100.1958008z"/>
<path d="M120.7426758,97.5883789c0.0561523,1.9833984,0.2827148,2.578125,0.9628906,2.7480469
	c0.4536133,0.1142578,1.0200195,0.1416016,1.246582,0.1416016c0.1137695,0,0.1987305,0.0859375,0.1987305,0.1982422
	c0,0.1425781-0.1699219,0.1992188-0.4536133,0.1992188c-1.4165039,0-2.4086914-0.0849609-2.6347656-0.0849609
	c-0.2265625,0-1.2753906,0.0849609-2.4082031,0.0849609c-0.2548828,0-0.3964844-0.0283203-0.3964844-0.1992188
	c0-0.1123047,0.0844727-0.1982422,0.1982422-0.1982422c0.1982422,0,0.6513672-0.0273438,1.0195312-0.1416016
	c0.6230469-0.1699219,0.7084961-0.8203125,0.7084961-3.0029297V83.5356445c0-0.9628906,0.1416016-1.21875,0.3398438-1.21875
	c0.2836914,0,0.7084961,0.4814453,0.9633789,0.7373047c0.3969727,0.3964844,4.0234375,4.25,7.8769531,8.2167969
	c2.4648438,2.5488281,5.1279297,5.4111328,5.8930664,6.2050781l-0.2553711-12.0703125
	c-0.027832-1.5585938-0.1694336-2.0966797-0.9345703-2.2382812c-0.453125-0.0849609-1.0200195-0.1132812-1.2182617-0.1132812
	c-0.1704102,0-0.1982422-0.1416016-0.1982422-0.2275391c0-0.140625,0.1982422-0.1689453,0.4814453-0.1689453
	c1.1333008,0,2.3232422,0.0556641,2.6064453,0.0556641c0.2836914,0,1.1049805-0.0556641,2.125-0.0556641
	c0.2548828,0,0.453125,0.0283203,0.453125,0.1689453c0,0.0859375-0.112793,0.2275391-0.2827148,0.2275391
	c-0.1137695,0-0.3120117,0-0.5952148,0.0566406c-0.8217773,0.1699219-0.8779297,0.6513672-0.8779297,2.0966797
	l-0.0571289,14.1103516c0,1.5859375-0.0283203,1.7275391-0.1982422,1.7275391c-0.2548828,0-0.5102539-0.1982422-1.8984375-1.4736328
	c-0.2548828-0.2265625-3.8530273-3.7685547-6.4882812-6.515625c-2.8901367-3.0322266-5.6953125-5.9794922-6.4594727-6.8291016
	L120.7426758,97.5883789z"/>
<path d="M149.050293,83.1381836c0.3120117-0.7939453,0.4248047-0.9345703,0.5947266-0.9345703
	c0.2553711,0,0.3398438,0.3398438,0.5952148,0.8789062c0.453125,1.0195312,4.4482422,10.9648438,5.9785156,14.6191406
	c0.90625,2.1533203,1.5864258,2.4648438,2.1245117,2.6347656c0.3686523,0.1142578,0.7368164,0.1416016,0.9916992,0.1416016
	c0.1416016,0,0.3120117,0.0566406,0.3120117,0.1982422c0,0.1425781-0.2836914,0.1992188-0.5668945,0.1992188
	c-0.3681641,0-2.2099609,0-3.9384766-0.0566406c-0.4814453-0.0283203-0.878418-0.0283203-0.878418-0.1699219
	c0-0.1142578,0.0571289-0.1142578,0.1704102-0.1708984c0.1416016-0.0556641,0.3964844-0.2539062,0.2265625-0.6513672
	l-2.2382812-5.5244141c-0.0566406-0.1132812-0.0849609-0.1425781-0.2265625-0.1425781h-5.7519531
	c-0.1132812,0-0.1982422,0.0566406-0.2548828,0.1982422l-1.4169922,3.8544922
	c-0.2265625,0.5947266-0.3676758,1.1894531-0.3676758,1.6142578c0,0.4824219,0.425293,0.6513672,0.8496094,0.6513672h0.2270508
	c0.1982422,0,0.2548828,0.0859375,0.2548828,0.1982422c0,0.1425781-0.1416016,0.1992188-0.3681641,0.1992188
	c-0.5957031,0-1.9550781-0.0849609-2.2382812-0.0849609c-0.2553711,0-1.5019531,0.0849609-2.5214844,0.0849609
	c-0.3120117,0-0.4824219-0.0566406-0.4824219-0.1992188c0-0.1123047,0.1132812-0.1982422,0.2270508-0.1982422
	c0.1694336,0,0.5380859-0.0273438,0.7363281-0.0556641c1.1333008-0.1425781,1.6152344-0.9931641,2.0966797-2.2099609
	L149.050293,83.1381836z M151.8266602,93.168457c0.1132812,0,0.1132812-0.0566406,0.0854492-0.1689453l-2.465332-6.6025391
	c-0.1416016-0.3681641-0.2827148-0.3681641-0.4248047,0l-2.3232422,6.6025391c-0.0288086,0.1123047,0,0.1689453,0.0844727,0.1689453
	H151.8266602z"/>
<path d="M167.1577148,93.9331055c0,3.5429688,0.0566406,4.9882812,0.5097656,5.4121094
	c0.3969727,0.3964844,1.3603516,0.5673828,3.3154297,0.5673828c1.3037109,0,2.4082031-0.0292969,3.003418-0.7373047
	c0.3120117-0.3681641,0.5102539-0.8779297,0.5947266-1.359375c0.0283203-0.1708984,0.1137695-0.3134766,0.2548828-0.3134766
	c0.112793,0,0.1699219,0.1152344,0.1699219,0.3701172s-0.1699219,1.6992188-0.3681641,2.4072266
	c-0.1699219,0.5673828-0.2548828,0.6513672-1.5864258,0.6513672c-1.7851562,0-3.1743164-0.0273438-4.3354492-0.0839844
	c-1.1328125-0.0283203-1.9833984-0.0566406-2.7202148-0.0566406c-0.112793,0-0.5380859,0-1.019043,0.0283203
	c-0.5102539,0.0283203-1.0488281,0.0566406-1.4453125,0.0566406c-0.2553711,0-0.3969727-0.0566406-0.3969727-0.1992188
	c0-0.0839844,0.0566406-0.1982422,0.1982422-0.1982422c0.2270508,0,0.5385742-0.0556641,0.7651367-0.1132812
	c0.4824219-0.1132812,0.5385742-0.5654297,0.6518555-1.2744141c0.1416016-0.9912109,0.1416016-2.8896484,0.1416016-5.2128906v-4.25
	c0-3.7412109,0-4.4199219-0.0566406-5.1855469c-0.0561523-0.8222656-0.1982422-1.21875-1.0200195-1.3310547
	c-0.1982422-0.0283203-0.6235352-0.0566406-0.8496094-0.0566406c-0.0854492,0-0.1982422-0.1142578-0.1982422-0.1982422
	c0-0.1425781,0.112793-0.1982422,0.3964844-0.1982422c1.1328125,0,2.6914062,0.0556641,2.8325195,0.0556641
	c0.1137695,0,1.9838867-0.0556641,2.7485352-0.0556641c0.2553711,0,0.3964844,0.0556641,0.3964844,0.1982422
	c0,0.0839844-0.112793,0.1689453-0.1982422,0.1689453c-0.1694336,0-0.5380859,0.0292969-0.8212891,0.0576172
	c-0.7363281,0.140625-0.878418,0.5087891-0.9345703,1.359375c-0.0288086,0.765625-0.0288086,1.4443359-0.0288086,5.1855469
	V93.9331055z"/>
<path d="M240.8579102,51.5522461c0-7.1787109,0-8.5014648-0.0957031-10.0126953
	c-0.09375-1.6049805-0.4707031-2.3608398-2.03125-2.6914062c-0.3769531-0.0947266-1.1796875-0.1416016-1.8417969-0.1416016
	c-0.5175781,0-0.8007812-0.0942383-0.8007812-0.425293c0-0.3305664,0.3300781-0.4248047,1.0371094-0.4248047
	c2.5039062,0,5.4785156,0.1416016,6.8007812,0.1416016c1.9375,0,4.6777344-0.1416016,6.8496094-0.1416016
	c5.9023438,0,8.0273438,1.9833984,8.78125,2.6918945c1.0410156,0.9912109,2.3632812,3.1166992,2.3632812,5.6201172
	c0,6.7055664-4.9121094,11.4287109-11.6191406,11.4287109c-0.234375,0-0.7539062,0-0.9902344-0.0478516
	c-0.2363281-0.0473633-0.5664062-0.0942383-0.5664062-0.4248047c0-0.3779297,0.3300781-0.5195312,1.3222656-0.5195312
	c2.6445312,0,6.328125-2.9755859,6.328125-7.7919922c0-1.5585938-0.1425781-4.7226562-2.7851562-7.0839844
	c-1.7011719-1.5585938-3.6386719-1.8422852-4.7226562-1.8422852c-0.7109375,0-1.4199219,0.0478516-1.84375,0.1889648
	c-0.2363281,0.0947266-0.3769531,0.3779297-0.3769531,0.8974609v18.890625c0,4.3442383,0,8.0756836,0.2363281,10.1064453
	c0.140625,1.3232422,0.4238281,2.3613281,1.8417969,2.5498047c0.6621094,0.0957031,1.6992188,0.1884766,2.4082031,0.1884766
	c0.5195312,0,0.7558594,0.1416016,0.7558594,0.3789062c0,0.3300781-0.3789062,0.4716797-0.8984375,0.4716797
	c-3.1152344,0-6.0917969-0.1416016-7.3183594-0.1416016c-1.0878906,0-4.0625,0.1416016-5.9511719,0.1416016
	c-0.6152344,0-0.9433594-0.1416016-0.9433594-0.4716797c0-0.2373047,0.1875-0.3789062,0.7539062-0.3789062
	c0.7089844,0,1.2753906-0.0927734,1.6992188-0.1884766c0.9453125-0.1884766,1.1816406-1.2265625,1.3710938-2.5976562
	c0.2363281-1.9829102,0.2363281-5.7143555,0.2363281-10.0585938V51.5522461z"/>
<path d="M270.8481445,54.8105469c0-6.0927734,0-7.2260742-0.0488281-8.5009766
	c-0.09375-1.3696289-0.4726562-1.7939453-1.7949219-2.1723633c-0.328125-0.0942383-1.0390625-0.1411133-1.6523438-0.1411133
	c-0.4238281,0-0.7070312-0.1420898-0.7070312-0.425293c0-0.2836914,0.3300781-0.3779297,0.9433594-0.3779297
	c2.171875,0,4.8164062,0.0942383,5.6660156,0.0942383c1.4179688,0,5.1953125-0.0942383,6.4707031-0.0942383
	c2.6445312,0,5.6660156,0.2358398,7.8867188,1.7001953c1.1816406,0.8022461,2.9277344,2.8334961,2.9277344,5.5253906
	c0,2.9750977-1.6992188,5.6196289-5.7597656,8.878418c3.6835938,4.5336914,6.609375,8.1704102,9.1132812,10.6733398
	c2.3144531,2.3144531,3.7773438,2.5029297,4.4394531,2.6455078c0.4257812,0.0927734,0.6601562,0.0927734,0.9921875,0.0927734
	c0.3300781,0,0.5195312,0.2363281,0.5195312,0.4257812c0,0.3310547-0.2832031,0.4248047-0.8027344,0.4248047h-3.96875
	c-2.3125,0-3.4472656-0.2363281-4.5332031-0.8027344c-1.7949219-0.8974609-3.3535156-2.7861328-5.6679688-5.9033203
	c-1.6523438-2.1723633-3.4003906-4.8642578-3.9179688-5.4780273c-0.2363281-0.2363281-0.4726562-0.2832031-0.7558594-0.2832031
	l-3.7304688-0.0947266c-0.1894531,0-0.3320312,0.0947266-0.3320312,0.3305664v0.5668945
	c0,3.730957,0.0488281,6.847168,0.2363281,8.5483398c0.1425781,1.1796875,0.3320312,1.9355469,1.6054688,2.125
	c0.6152344,0.09375,1.5117188,0.140625,2.03125,0.140625c0.3300781,0,0.5195312,0.2363281,0.5195312,0.4257812
	c0,0.2832031-0.3300781,0.4248047-0.8496094,0.4248047c-2.4082031,0-5.8554688-0.1416016-6.46875-0.1416016
	c-0.8046875,0-3.4492188,0.1416016-5.1015625,0.1416016c-0.5195312,0-0.8027344-0.1416016-0.8027344-0.4248047
	c0-0.1894531,0.1425781-0.4257812,0.6601562-0.4257812c0.6132812,0,1.0859375-0.046875,1.4648438-0.140625
	c0.8496094-0.1894531,1.0859375-0.9453125,1.2285156-2.125c0.1894531-1.7011719,0.1894531-4.8647461,0.1894531-8.5483398V54.8105469
	z M276.1352539,57.9272461c0,0.425293,0.0957031,0.5668945,0.3789062,0.7084961
	c0.8984375,0.2832031,2.125,0.3774414,3.1640625,0.3774414c1.6523438,0,2.21875-0.1411133,2.9277344-0.6606445
	c1.2753906-0.8974609,2.6914062-2.6445312,2.6914062-5.9501953c0-5.6674805-3.8710938-7.1313477-6.328125-7.1313477
	c-1.0371094,0-2.03125,0.046875-2.4550781,0.1416016c-0.2832031,0.0947266-0.3789062,0.2358398-0.3789062,0.5668945V57.9272461z"/>
<path d="M301.2133789,54.8105469c0-6.0927734,0.046875-7.2260742-0.046875-8.5009766
	c-0.09375-1.4165039-0.4707031-1.7939453-1.7949219-2.1723633c-0.3300781-0.0942383-1.0390625-0.1411133-1.6054688-0.1411133
	c-0.4707031,0-0.7089844-0.1420898-0.7089844-0.425293c0-0.2836914,0.2851562-0.3779297,0.8984375-0.3779297
	c2.2207031,0,5.0058594,0.0942383,6.234375,0.0942383c1.0390625,0,3.8242188-0.0942383,5.3359375-0.0942383
	c0.6132812,0,0.8964844,0.0942383,0.8964844,0.3779297c0,0.2832031-0.2363281,0.425293-0.6601562,0.425293
	c-0.4726562,0-0.7089844,0.046875-1.2285156,0.1411133c-1.0859375,0.1889648-1.4160156,0.7558594-1.5097656,2.1723633
	c-0.0957031,1.2749023-0.0957031,2.4082031-0.0957031,8.5009766v5.6196289c0,5.8564453,1.1347656,8.1230469,3.1660156,9.7285156
	c1.8398438,1.4638672,3.8242188,1.6064453,5.2402344,1.6064453c1.7949219,0,3.9199219-0.5195312,5.5722656-2.1259766
	c2.3144531-2.171875,2.4082031-5.6669922,2.4082031-9.7753906v-5.0532227c0-6.0927734-0.046875-7.2260742-0.09375-8.5009766
	c-0.09375-1.3696289-0.4257812-1.7939453-1.7480469-2.1723633c-0.3300781-0.0942383-1.0371094-0.1411133-1.5097656-0.1411133
	s-0.7089844-0.1420898-0.7089844-0.425293c0-0.2836914,0.2832031-0.3779297,0.8496094-0.3779297
	c2.125,0,4.9121094,0.0942383,4.9589844,0.0942383c0.4726562,0,3.2578125-0.0942383,4.8632812-0.0942383
	c0.5683594,0,0.8515625,0.0942383,0.8515625,0.3779297c0,0.2832031-0.2363281,0.425293-0.7089844,0.425293
	s-0.7089844,0.046875-1.2285156,0.1411133c-1.1308594,0.1889648-1.4160156,0.7558594-1.5097656,2.1723633
	c-0.046875,1.2749023-0.0957031,2.4082031-0.0957031,8.5009766v4.2978516c0,4.4863281-0.4726562,9.2084961-3.9667969,12.0883789
	c-2.9277344,2.4560547-6.0917969,2.8818359-8.7851562,2.8818359c-2.171875,0-6.46875-0.09375-9.4902344-2.7392578
	c-2.125-1.8427734-3.7792969-4.8168945-3.7792969-10.6254883V54.8105469z"/>
<path d="M337.9575195,54.8105469c0-6.0927734,0-7.2260742-0.046875-8.5009766
	c-0.09375-1.3696289-0.5195312-1.8413086-1.4179688-2.1254883c-0.4726562-0.1411133-0.9902344-0.1879883-1.5117188-0.1879883
	c-0.4238281,0-0.6601562-0.0947266-0.6601562-0.4726562c0-0.2363281,0.3300781-0.3305664,0.9921875-0.3305664
	c1.5585938,0,4.390625,0.0942383,5.5722656,0.0942383c1.0390625,0,3.7304688-0.0942383,5.3378906-0.0942383
	c0.5175781,0,0.8496094,0.0942383,0.8496094,0.3305664c0,0.3779297-0.2363281,0.4726562-0.6621094,0.4726562
	c-0.4238281,0-0.7558594,0.046875-1.2265625,0.1411133c-1.1347656,0.1889648-1.4648438,0.7558594-1.5585938,2.1723633
	c-0.0957031,1.2749023-0.0957031,2.4082031-0.0957031,8.5009766v7.0839844c0,3.8725586,0,7.0839844,0.1894531,8.7827148
	c0.1425781,1.0878906,0.4257812,1.7011719,1.6542969,1.890625c0.5644531,0.09375,1.5097656,0.140625,2.1230469,0.140625
	c0.4726562,0,0.6621094,0.2363281,0.6621094,0.4257812c0,0.2832031-0.3320312,0.4248047-0.8027344,0.4248047
	c-2.7402344,0-5.5742188-0.1416016-6.7050781-0.1416016c-0.9472656,0-3.7792969,0.1416016-5.4316406,0.1416016
	c-0.5195312,0-0.8027344-0.1416016-0.8027344-0.4248047c0-0.1894531,0.140625-0.4257812,0.6601562-0.4257812
	c0.6132812,0,1.0859375-0.046875,1.4628906-0.140625c0.8515625-0.1894531,1.0878906-0.7558594,1.2285156-1.9365234
	c0.1894531-1.652832,0.1894531-4.8642578,0.1894531-8.7368164V54.8105469z"/>
<path d="M362.7055664,45.6484375l-6.1875,0.1420898c-2.4082031,0.046875-3.4003906,0.3300781-4.0136719,1.2280273
	c-0.4257812,0.565918-0.6152344,1.0859375-0.7089844,1.3691406c-0.0957031,0.3300781-0.1894531,0.5195312-0.4726562,0.5195312
	s-0.3769531-0.2363281-0.3769531-0.6611328c0-0.6616211,0.8027344-4.5336914,0.8984375-4.8642578
	c0.09375-0.5195312,0.234375-0.7558594,0.4707031-0.7558594c0.3300781,0,0.7539062,0.3310547,1.7949219,0.472168
	c1.2285156,0.1420898,2.7851562,0.1889648,4.1542969,0.1889648h16.8613281c1.3222656,0,2.2207031-0.0942383,2.8320312-0.1889648
	c0.6621094-0.09375,0.9921875-0.1889648,1.1347656-0.1889648c0.2832031,0,0.3300781,0.2368164,0.3300781,0.8505859
	c0,0.8496094-0.09375,3.824707-0.09375,4.8642578c-0.0488281,0.425293-0.1425781,0.6611328-0.3789062,0.6611328
	c-0.3300781,0-0.4238281-0.1894531-0.4726562-0.8032227l-0.046875-0.4248047
	c-0.09375-1.0385742-1.1796875-2.2666016-4.9121094-2.3139648l-5.2402344-0.0947266v16.2460938
	c0,3.6835938,0.046875,6.847168,0.234375,8.5952148c0.1425781,1.1328125,0.3789062,1.8886719,1.6074219,2.078125
	c0.5644531,0.09375,1.5117188,0.140625,2.125,0.140625c0.4707031,0,0.6601562,0.2363281,0.6601562,0.4257812
	c0,0.2832031-0.3300781,0.4248047-0.8007812,0.4248047c-2.7402344,0-5.5253906-0.1416016-6.7070312-0.1416016
	c-0.9453125,0-3.7792969,0.1416016-5.4316406,0.1416016c-0.5195312,0-0.8027344-0.1416016-0.8027344-0.4248047
	c0-0.1894531,0.1425781-0.4257812,0.6621094-0.4257812c0.6132812,0,1.1328125-0.046875,1.4628906-0.140625
	c0.8496094-0.1894531,1.0859375-0.9453125,1.2285156-2.125c0.1894531-1.7011719,0.1894531-4.8647461,0.1894531-8.5483398V45.6484375
	z"/>
<path d="M392.5981445,45.6484375l-6.1855469,0.1420898c-2.4082031,0.046875-3.4003906,0.3300781-4.0136719,1.2280273
	c-0.4257812,0.565918-0.6132812,1.0859375-0.7089844,1.3691406c-0.09375,0.3300781-0.1894531,0.5195312-0.4726562,0.5195312
	s-0.3769531-0.2363281-0.3769531-0.6611328c0-0.6616211,0.8027344-4.5336914,0.8964844-4.8642578
	c0.09375-0.5195312,0.2363281-0.7558594,0.4726562-0.7558594c0.3300781,0,0.7558594,0.3310547,1.7949219,0.472168
	c1.2265625,0.1420898,2.7871094,0.1889648,4.15625,0.1889648h16.859375c1.3222656,0,2.21875-0.0942383,2.8339844-0.1889648
	c0.6621094-0.09375,0.9921875-0.1889648,1.1328125-0.1889648c0.2832031,0,0.3300781,0.2368164,0.3300781,0.8505859
	c0,0.8496094-0.09375,3.824707-0.09375,4.8642578c-0.046875,0.425293-0.1425781,0.6611328-0.3769531,0.6611328
	c-0.3300781,0-0.4257812-0.1894531-0.4746094-0.8032227l-0.0449219-0.4248047
	c-0.0957031-1.0385742-1.1816406-2.2666016-4.9121094-2.3139648l-5.2421875-0.0947266v16.2460938
	c0,3.6835938,0.046875,6.847168,0.2363281,8.5952148c0.140625,1.1328125,0.3789062,1.8886719,1.6054688,2.078125
	c0.5664062,0.09375,1.5117188,0.140625,2.125,0.140625c0.4726562,0,0.6621094,0.2363281,0.6621094,0.4257812
	c0,0.2832031-0.3300781,0.4248047-0.8046875,0.4248047c-2.7382812,0-5.5253906-0.1416016-6.7070312-0.1416016
	c-0.9433594,0-3.7753906,0.1416016-5.4277344,0.1416016c-0.5195312,0-0.8046875-0.1416016-0.8046875-0.4248047
	c0-0.1894531,0.1425781-0.4257812,0.6621094-0.4257812c0.6132812,0,1.1328125-0.046875,1.4648438-0.140625
	c0.8496094-0.1894531,1.0839844-0.9453125,1.2265625-2.125c0.1875-1.7011719,0.1875-4.8647461,0.1875-8.5483398V45.6484375z"/>
<path d="M251.2485352,92.6586914c0,2.7207031,0,4.9589844,0.140625,6.1484375
	c0.0859375,0.8212891,0.2558594,1.4443359,1.1054688,1.5576172c0.3984375,0.0576172,1.0195312,0.1132812,1.2753906,0.1132812
	c0.1699219,0,0.2265625,0.0859375,0.2265625,0.1708984c0,0.1416016-0.140625,0.2265625-0.453125,0.2265625
	c-1.5585938,0-3.34375-0.0849609-3.484375-0.0849609c-0.1425781,0-1.9277344,0.0849609-2.7773438,0.0849609
	c-0.3125,0-0.453125-0.0566406-0.453125-0.2265625c0-0.0849609,0.0566406-0.1708984,0.2265625-0.1708984
	c0.2558594,0,0.59375-0.0556641,0.8496094-0.1132812c0.5683594-0.1132812,0.7089844-0.7363281,0.8222656-1.5576172
	c0.1425781-1.1894531,0.1425781-3.4277344,0.1425781-6.1484375V80.6733398l-4.1953125,0.0576172
	c-1.7558594,0.0273438-2.4355469,0.2255859-2.8886719,0.90625c-0.3125,0.4814453-0.3964844,0.6796875-0.4824219,0.8779297
	c-0.0839844,0.2265625-0.1699219,0.2832031-0.2832031,0.2832031c-0.0859375,0-0.1425781-0.0849609-0.1425781-0.2548828
	c0-0.2822266,0.5683594-2.7197266,0.625-2.9472656c0.0566406-0.1689453,0.1699219-0.5371094,0.2832031-0.5371094
	c0.1972656,0,0.4824219,0.2832031,1.2460938,0.3388672c0.8222656,0.0859375,1.8984375,0.1425781,2.2382812,0.1425781h10.625
	c0.90625,0,1.5585938-0.0566406,2.0136719-0.1425781c0.4238281-0.0556641,0.6777344-0.140625,0.7929688-0.140625
	c0.140625,0,0.140625,0.1699219,0.140625,0.3388672c0,0.8505859-0.0839844,2.8056641-0.0839844,3.1171875
	c0,0.2558594-0.0878906,0.3691406-0.1992188,0.3691406c-0.1425781,0-0.1992188-0.0859375-0.2265625-0.4824219l-0.0273438-0.3115234
	c-0.0878906-0.8496094-0.7675781-1.5009766-3.4863281-1.5576172l-3.5703125-0.0576172V92.6586914z"/>
<path d="M265.5297852,89.6274414c0-3.7412109,0-4.4199219-0.0546875-5.1855469
	c-0.0585938-0.8222656-0.1992188-1.21875-1.0214844-1.3310547c-0.1972656-0.0283203-0.6230469-0.0566406-0.8476562-0.0566406
	c-0.0878906,0-0.1992188-0.1142578-0.1992188-0.1982422c0-0.1425781,0.1113281-0.1982422,0.3964844-0.1982422
	c1.1328125,0,2.8027344,0.0556641,2.9453125,0.0556641c0.2539062,0,2.3535156-0.0556641,3.1171875-0.0556641
	c1.5859375,0,3.34375,0.140625,4.6464844,1.0478516c0.625,0.4541016,1.7285156,1.6152344,1.7285156,3.2871094
	c0,1.7851562-0.7363281,3.5126953-3.0605469,5.4951172c2.0410156,2.5507812,3.7675781,4.7324219,5.2148438,6.2353516
	c1.3300781,1.3583984,2.1523438,1.5859375,2.7753906,1.6708984c0.4804688,0.0839844,0.7363281,0.0839844,0.8769531,0.0839844
	c0.1445312,0,0.2285156,0.1142578,0.2285156,0.1982422c0,0.1425781-0.140625,0.1992188-0.59375,0.1992188h-1.5605469
	c-1.4160156,0-2.0390625-0.1425781-2.6621094-0.4814453c-1.078125-0.5673828-1.984375-1.7285156-3.4003906-3.5419922
	c-1.0488281-1.3027344-2.1523438-2.8613281-2.6914062-3.5136719c-0.1132812-0.1132812-0.1699219-0.140625-0.3417969-0.140625
	l-3.171875-0.0576172c-0.1132812,0-0.1699219,0.0576172-0.1699219,0.1982422v0.5664062c0,2.3242188,0,4.1943359,0.1132812,5.1855469
	c0.0859375,0.7089844,0.2285156,1.1611328,0.9921875,1.2744141c0.3378906,0.0576172,0.8789062,0.1132812,1.1054688,0.1132812
	c0.1699219,0,0.1972656,0.1142578,0.1972656,0.1982422c0,0.1142578-0.1132812,0.1992188-0.3964844,0.1992188
	c-1.3613281,0-2.9472656-0.0849609-3.0585938-0.0849609c-0.03125,0-1.7011719,0.0849609-2.4667969,0.0849609
	c-0.2558594,0-0.3964844-0.0566406-0.3964844-0.1992188c0-0.0839844,0.0566406-0.1982422,0.1992188-0.1982422
	c0.2265625,0,0.5371094-0.0556641,0.7636719-0.1132812c0.4824219-0.1132812,0.5390625-0.5654297,0.6523438-1.2744141
	c0.140625-0.9912109,0.140625-2.8896484,0.140625-5.2128906V89.6274414z M267.684082,91.6674805
	c0,0.140625,0.0566406,0.2255859,0.1699219,0.3105469c0.3691406,0.1982422,1.6445312,0.3691406,2.7480469,0.3691406
	c0.5957031,0,1.2753906-0.0283203,1.8710938-0.4248047c0.8496094-0.5664062,1.5-1.8417969,1.5-3.6835938
	c0-3.0029297-1.6425781-4.7314453-4.3046875-4.7314453c-0.7382812,0-1.53125,0.0839844-1.7851562,0.1416016
	c-0.1132812,0.0566406-0.1992188,0.140625-0.1992188,0.2832031V91.6674805z"/>
<path d="M290.4672852,83.1381836c0.3125-0.7939453,0.4238281-0.9345703,0.59375-0.9345703
	c0.2558594,0,0.3417969,0.3398438,0.5957031,0.8789062c0.453125,1.0195312,4.4492188,10.9648438,5.9785156,14.6191406
	c0.90625,2.1533203,1.5878906,2.4648438,2.125,2.6347656c0.3671875,0.1142578,0.7363281,0.1416016,0.9921875,0.1416016
	c0.140625,0,0.3125,0.0566406,0.3125,0.1982422c0,0.1425781-0.2851562,0.1992188-0.5683594,0.1992188
	c-0.3691406,0-2.2089844,0-3.9394531-0.0566406c-0.4804688-0.0283203-0.8769531-0.0283203-0.8769531-0.1699219
	c0-0.1142578,0.0566406-0.1142578,0.171875-0.1708984c0.140625-0.0556641,0.3964844-0.2539062,0.2246094-0.6513672
	l-2.2382812-5.5244141c-0.0566406-0.1132812-0.0839844-0.1425781-0.2265625-0.1425781h-5.7519531
	c-0.1132812,0-0.1972656,0.0566406-0.2539062,0.1982422l-1.4160156,3.8544922
	c-0.2265625,0.5947266-0.3710938,1.1894531-0.3710938,1.6142578c0,0.4824219,0.4257812,0.6513672,0.8515625,0.6513672h0.2265625
	c0.1992188,0,0.2558594,0.0859375,0.2558594,0.1982422c0,0.1425781-0.140625,0.1992188-0.3691406,0.1992188
	c-0.59375,0-1.9550781-0.0849609-2.2382812-0.0849609c-0.2558594,0-1.5019531,0.0849609-2.5214844,0.0849609
	c-0.3125,0-0.4804688-0.0566406-0.4804688-0.1992188c0-0.1123047,0.1113281-0.1982422,0.2246094-0.1982422
	c0.171875,0,0.5390625-0.0273438,0.7363281-0.0556641c1.1347656-0.1425781,1.6171875-0.9931641,2.0976562-2.2099609
	L290.4672852,83.1381836z M293.2426758,93.168457c0.1152344,0,0.1152344-0.0566406,0.0859375-0.1689453l-2.4648438-6.6025391
	c-0.140625-0.3681641-0.2832031-0.3681641-0.4238281,0l-2.3261719,6.6025391c-0.0253906,0.1123047,0,0.1689453,0.0878906,0.1689453
	H293.2426758z"/>
<path d="M308.574707,93.8774414c0,2.3232422,0,4.2216797,0.1132812,5.2128906
	c0.0859375,0.7089844,0.1699219,1.1611328,0.9082031,1.2744141c0.3671875,0.0576172,0.9042969,0.1132812,1.1308594,0.1132812
	c0.1425781,0,0.1992188,0.1142578,0.1992188,0.1982422c0,0.1142578-0.1132812,0.1992188-0.3964844,0.1992188
	c-1.3886719,0-3.0039062-0.0849609-3.1152344-0.0849609c-0.1445312,0-1.7011719,0.0849609-2.4667969,0.0849609
	c-0.2558594,0-0.3964844-0.0566406-0.3964844-0.1992188c0-0.0839844,0.0566406-0.1982422,0.1992188-0.1982422
	c0.2265625,0,0.5371094-0.0556641,0.7636719-0.1132812c0.4824219-0.1132812,0.5664062-0.5654297,0.6523438-1.2744141
	c0.1113281-0.9912109,0.140625-2.8896484,0.140625-5.2128906v-4.25c0-3.7412109,0-4.4199219-0.0566406-5.1855469
	c-0.0566406-0.8222656-0.2539062-1.1894531-0.7929688-1.3037109c-0.28125-0.0556641-0.59375-0.0839844-0.765625-0.0839844
	c-0.1113281,0-0.1972656-0.1142578-0.1972656-0.1982422c0-0.1425781,0.1132812-0.1982422,0.3964844-0.1982422
	c0.8222656,0,2.3789062,0.0556641,2.5234375,0.0556641c0.1113281,0,1.7265625-0.0556641,2.4902344-0.0556641
	c0.2851562,0,0.3964844,0.0556641,0.3964844,0.1982422c0,0.0839844-0.1113281,0.1982422-0.1972656,0.1982422
	c-0.1699219,0-0.3398438,0-0.6230469,0.0566406c-0.6796875,0.1416016-0.8203125,0.4804688-0.8769531,1.3310547
	c-0.0292969,0.765625-0.0292969,1.4443359-0.0292969,5.1855469V93.8774414z"/>
<path d="M319.7680664,97.5883789c0.0566406,1.9833984,0.2832031,2.578125,0.9628906,2.7480469
	c0.453125,0.1142578,1.0195312,0.1416016,1.2460938,0.1416016c0.1132812,0,0.1972656,0.0859375,0.1972656,0.1982422
	c0,0.1425781-0.1679688,0.1992188-0.453125,0.1992188c-1.4160156,0-2.40625-0.0849609-2.6347656-0.0849609
	c-0.2246094,0-1.2734375,0.0849609-2.4082031,0.0849609c-0.2539062,0-0.3964844-0.0283203-0.3964844-0.1992188
	c0-0.1123047,0.0859375-0.1982422,0.1992188-0.1982422c0.1972656,0,0.6523438-0.0273438,1.0195312-0.1416016
	c0.6230469-0.1699219,0.7089844-0.8203125,0.7089844-3.0029297V83.5356445c0-0.9628906,0.140625-1.21875,0.3398438-1.21875
	c0.2832031,0,0.7089844,0.4814453,0.9628906,0.7373047c0.3964844,0.3964844,4.0234375,4.25,7.875,8.2167969
	c2.4667969,2.5488281,5.1289062,5.4111328,5.8945312,6.2050781l-0.2539062-12.0703125
	c-0.0292969-1.5585938-0.1699219-2.0966797-0.9355469-2.2382812c-0.453125-0.0849609-1.0195312-0.1132812-1.21875-0.1132812
	c-0.1679688,0-0.1972656-0.1416016-0.1972656-0.2275391c0-0.140625,0.1972656-0.1689453,0.4804688-0.1689453
	c1.1347656,0,2.3242188,0.0556641,2.6074219,0.0556641s1.1054688-0.0556641,2.125-0.0556641
	c0.2539062,0,0.453125,0.0283203,0.453125,0.1689453c0,0.0859375-0.1132812,0.2275391-0.2832031,0.2275391
	c-0.1132812,0-0.3125,0-0.5957031,0.0566406c-0.8222656,0.1699219-0.8789062,0.6513672-0.8789062,2.0966797l-0.0546875,14.1103516
	c0,1.5859375-0.0292969,1.7275391-0.1992188,1.7275391c-0.2539062,0-0.5097656-0.1982422-1.8984375-1.4736328
	c-0.2539062-0.2265625-3.8535156-3.7685547-6.4882812-6.515625c-2.8886719-3.0322266-5.6953125-5.9794922-6.4609375-6.8291016
	L319.7680664,97.5883789z"/>
<path d="M345.9790039,93.8774414c0,2.3232422,0,4.2216797,0.1132812,5.2128906
	c0.0839844,0.7089844,0.1699219,1.1611328,0.90625,1.2744141c0.3691406,0.0576172,0.90625,0.1132812,1.1328125,0.1132812
	c0.1425781,0,0.1992188,0.1142578,0.1992188,0.1982422c0,0.1142578-0.1132812,0.1992188-0.3964844,0.1992188
	c-1.3886719,0-3.0039062-0.0849609-3.1171875-0.0849609c-0.1425781,0-1.6992188,0.0849609-2.4648438,0.0849609
	c-0.2558594,0-0.3964844-0.0566406-0.3964844-0.1992188c0-0.0839844,0.0566406-0.1982422,0.1972656-0.1982422
	c0.2285156,0,0.5390625-0.0556641,0.765625-0.1132812c0.4824219-0.1132812,0.5664062-0.5654297,0.6523438-1.2744141
	c0.1113281-0.9912109,0.140625-2.8896484,0.140625-5.2128906v-4.25c0-3.7412109,0-4.4199219-0.0566406-5.1855469
	c-0.0566406-0.8222656-0.2539062-1.1894531-0.7929688-1.3037109c-0.2832031-0.0556641-0.59375-0.0839844-0.765625-0.0839844
	c-0.1113281,0-0.1972656-0.1142578-0.1972656-0.1982422c0-0.1425781,0.1132812-0.1982422,0.3964844-0.1982422
	c0.8222656,0,2.3789062,0.0556641,2.5214844,0.0556641c0.1132812,0,1.7285156-0.0556641,2.4921875-0.0556641
	c0.2851562,0,0.3964844,0.0556641,0.3964844,0.1982422c0,0.0839844-0.1113281,0.1982422-0.1972656,0.1982422
	c-0.1699219,0-0.3398438,0-0.6230469,0.0566406c-0.6796875,0.1416016-0.8203125,0.4804688-0.8769531,1.3310547
	c-0.0292969,0.765625-0.0292969,1.4443359-0.0292969,5.1855469V93.8774414z"/>
<path d="M357.1723633,97.5883789c0.0585938,1.9833984,0.2832031,2.578125,0.9628906,2.7480469
	c0.4550781,0.1142578,1.0214844,0.1416016,1.2480469,0.1416016c0.1132812,0,0.1972656,0.0859375,0.1972656,0.1982422
	c0,0.1425781-0.1679688,0.1992188-0.453125,0.1992188c-1.4160156,0-2.4082031-0.0849609-2.6347656-0.0849609
	s-1.2753906,0.0849609-2.4082031,0.0849609c-0.2539062,0-0.3964844-0.0283203-0.3964844-0.1992188
	c0-0.1123047,0.0839844-0.1982422,0.1992188-0.1982422c0.1972656,0,0.6523438-0.0273438,1.0195312-0.1416016
	c0.6230469-0.1699219,0.7089844-0.8203125,0.7089844-3.0029297V83.5356445c0-0.9628906,0.140625-1.21875,0.3378906-1.21875
	c0.2851562,0,0.7089844,0.4814453,0.9648438,0.7373047c0.3964844,0.3964844,4.0234375,4.25,7.875,8.2167969
	c2.4667969,2.5488281,5.1289062,5.4111328,5.8945312,6.2050781l-0.2558594-12.0703125
	c-0.0273438-1.5585938-0.1699219-2.0966797-0.9335938-2.2382812c-0.453125-0.0849609-1.0214844-0.1132812-1.21875-0.1132812
	c-0.1699219,0-0.1992188-0.1416016-0.1992188-0.2275391c0-0.140625,0.1992188-0.1689453,0.4804688-0.1689453
	c1.1367188,0,2.3261719,0.0556641,2.609375,0.0556641s1.1054688-0.0556641,2.1230469-0.0556641
	c0.2558594,0,0.4550781,0.0283203,0.4550781,0.1689453c0,0.0859375-0.1152344,0.2275391-0.2832031,0.2275391
	c-0.1132812,0-0.3125,0-0.5957031,0.0566406c-0.8222656,0.1699219-0.8789062,0.6513672-0.8789062,2.0966797l-0.0566406,14.1103516
	c0,1.5859375-0.0292969,1.7275391-0.1972656,1.7275391c-0.2558594,0-0.5097656-0.1982422-1.8984375-1.4736328
	c-0.2558594-0.2265625-3.8535156-3.7685547-6.4902344-6.515625c-2.8867188-3.0322266-5.6933594-5.9794922-6.4589844-6.8291016
	L357.1723633,97.5883789z"/>
<path d="M393.0161133,94.7270508c0-1.9550781-0.0546875-2.2392578-1.0761719-2.4375
	c-0.1992188-0.0273438-0.6230469-0.0566406-0.8496094-0.0566406c-0.0859375,0-0.1972656-0.1123047-0.1972656-0.1982422
	c0-0.1689453,0.1113281-0.1982422,0.3964844-0.1982422c1.1328125,0,2.8027344,0.0566406,2.9453125,0.0566406
	c0.1132812,0,1.671875-0.0566406,2.4355469-0.0566406c0.2832031,0,0.3964844,0.0292969,0.3964844,0.1982422
	c0,0.0859375-0.1132812,0.1982422-0.1972656,0.1982422c-0.1699219,0-0.3398438,0-0.6230469,0.0566406
	c-0.6816406,0.1152344-0.8789062,0.4824219-0.9335938,1.3320312c-0.0292969,0.765625-0.0292969,1.4746094-0.0292969,2.4931641
	v2.6923828c0,1.1054688-0.0273438,1.1328125-0.3398438,1.3037109c-1.5859375,0.8203125-3.8535156,1.0761719-5.2988281,1.0761719
	c-1.8984375,0-5.4394531-0.2265625-8.2167969-2.578125c-1.5292969-1.2753906-2.9746094-3.8544922-2.9746094-6.8564453
	c0-3.8535156,1.9550781-6.5742188,4.1660156-7.9052734c2.2363281-1.359375,4.7304688-1.5302734,6.6289062-1.5302734
	c1.5878906,0,3.3417969,0.2832031,3.8261719,0.3964844c0.5078125,0.1132812,1.3886719,0.2558594,2.0097656,0.2558594
	c0.2558594,0,0.3125,0.1132812,0.3125,0.2255859c0,0.3408203-0.140625,0.9921875-0.140625,3.4003906
	c0,0.3974609-0.1152344,0.5107422-0.2851562,0.5107422c-0.140625,0-0.1699219-0.1435547-0.1699219-0.3691406
	c-0.0292969-0.3115234-0.1699219-1.0195312-0.5664062-1.5859375c-0.6230469-0.9072266-2.5214844-1.8701172-5.7519531-1.8701172
	c-1.5019531,0-3.3144531,0.1123047-5.2128906,1.5576172c-1.4453125,1.1054688-2.4648438,3.2587891-2.4648438,6.0634766
	c0,3.4003906,1.7558594,5.8369141,2.6367188,6.6582031c1.9824219,1.8417969,4.078125,2.5214844,6.3730469,2.5214844
	c0.8789062,0,2.0390625-0.0839844,2.6914062-0.453125c0.3125-0.1699219,0.5097656-0.2832031,0.5097656-0.7363281V94.7270508z"/>
<path fill="#98509F" d="M197.1782227,124.2827148c0,0-0.8461914-0.3505859-1.0444336-0.2197266
	c-0.1972656,0.1308594-0.5263672,0.7236328-0.5263672,1.0537109c0,0.3291016-0.3955078,0.9208984-0.9873047,1.3818359
	c-0.5922852,0.4599609-1.4477539,1.1855469-1.7114258,1.5136719c-0.2631836,0.3291016-2.237793,1.7773438-2.8959961,1.8427734
	c-0.6586914,0.0664062-1.9091797,0.5927734-2.1723633,0.921875c-0.2631836,0.328125-0.5263672,1.1845703,0.2631836,1.7119141
	c0.7900391,0.5263672,4.2124023,1.25,5.5292969,1.25c1.315918,0,2.5668945-1.0527344,3.9492188-0.7890625
	c1.3818359,0.2626953,4.9370117-0.0664062,5.6601562-0.1982422c0.7241211-0.1318359,0.921875-1.3164062,0.7905273-1.5136719
	s0-0.7900391-0.3950195-1.5800781c-0.3955078-0.7900391-0.5922852-0.9863281-0.7241211-1.7109375
	c-0.1318359-0.7236328-0.0654297-1.8427734-0.2626953-1.9091797c-0.1982422-0.0654297-0.2641602-0.7890625-0.2641602-0.7890625
	s-0.1313477-5.859375,0.3295898-7.1757812c0.4609375-1.3154297,2.3041992-5.8583984,1.9091797-9.5439453
	c-0.3544922-3.296875,0-4.4101562,0-5.6601562c0-1.2509766-0.2539062-3.2431641,0.6577148-5.5957031
	c1.9165039-4.9453125,3.2758789-11.9492188,3.4243164-13.4335938c0.0175781-0.1855469,0.1191406-0.2441406,0.2519531-0.2548828
	c0.1347656-0.0117188,0.265625,0.0302734,0.3222656,0.1884766c0.3730469,1.0419922,2.0507812,4.7246094,2.8476562,5.8632812
	c0.921875,1.3173828,2.3710938,5.1445312,3.3574219,6.9775391c0.921875,1.7128906,3.0273438,4.0810547,3.2910156,4.9365234
	s0.4609375,2.0410156,0.921875,2.765625s1.1855469,1.7109375,1.9101562,2.9619141
	c0.7226562,1.25,0.6933594,7.1435547,2.171875,9.5585938c2.2050781,3.6005859,4.1464844,10.1220703,4.1464844,10.1220703
	s-0.265625,0.4609375-0.4628906,0.7900391c-0.1953125,0.3300781-0.1308594,1.3828125-0.1308594,1.3828125
	s-0.1308594,0.5927734-0.5273438,0.7236328c-0.3945312,0.1318359-0.3046875,0.6601562-0.0429688,0.9892578
	c0.265625,0.3291016,0.2421875,0.7226562,0.2421875,0.7226562s-0.1210938,1.1865234-0.6582031,2.0214844
	c-0.6308594,0.9794922-1.2675781,1.7587891-1.4921875,2.2070312c-0.3945312,0.7910156-0.6796875,1.8935547-0.0234375,2.0898438
	c1.0566406,0.3173828,2.9628906,0.5263672,4.1464844,0.3945312c1.1875-0.1308594,3.1601562-0.6582031,3.6230469-1.8417969
	c0.1953125-0.5068359,0.328125-1.4492188,0.65625-1.84375c0.3300781-0.3955078,0.8554688-2.1728516,0.5917969-2.9628906
	c-0.2617188-0.7890625-0.6582031-1.4472656-0.7890625-1.9736328s-0.3945312-1.7119141-0.7890625-1.9091797
	s-0.5273438-1.25-0.7246094-1.7773438c-0.1972656-0.5263672-0.6582031-6.9775391-0.7246094-10.3330078
	c-0.0664062-3.3574219-1.5058594-8.4423828-3.4882812-10.7958984c0,0-1.1835938-3.2910156-1.9746094-4.7392578
	c-0.7890625-1.4472656-0.71875-4.46875-1.078125-7.4853516c-0.3222656-2.71875-1.6796875-8.5625-2.7929688-11.7724609
	c-0.9804688-2.8349609-2.3261719-4.3007812-2.4179688-6.5976562c-0.0683594-1.6962891-0.4824219-3.1210938-0.6835938-3.7802734
	c-0.1992188-0.6425781-0.5351562-1.2983398-1.421875-3.1464844c-0.5058594-1.0556641-1.1191406-3.1069336-0.7246094-4.8842773
	c0.3964844-1.7768555,2.8496094-5.9492188,3.4101562-7.6816406c0.6914062-2.1352539,2.3183594-3.7592773,2.6816406-5.2695312
	c0.3066406-1.28125,0.1972656-5.2001953,0.5917969-6.1879883c0.3945312-0.9873047,1.3828125-4.9360352,0.7246094-6.3188477
	c-0.6582031-1.3823242-0.1972656-2.237793-0.1972656-2.237793s1.1835938-4.2119141-0.1972656-6.1875
	c-0.8632812-1.2319336-2.8320312-2.8959961-2.8320312-2.8959961s-0.4628906-1.8564453-0.4628906-2.6342773
	c0-0.9428711,0.4628906-3.2895508-0.7207031-5.8569336c-1.1855469-2.5668945-3.2265625-7.6357422-3.5546875-8.6889648
	s-0.6582031-3.2910156-0.6582031-3.2910156s0.1328125-3.027832-0.3300781-3.6201172
	c-0.4589844-0.5917969-1.7753906-1.4829102-1.9726562-1.4829102s-1.1933594,0.027832-1.1933594,0.027832
	S210.9418945,0,210.6137695,0c-0.3300781,0-1.0019531,0.4165039-1.0019531,0.4165039s-0.4511719,0.0341797-0.8457031,0.0996094
	c-0.3945312,0.065918-0.5527344,0.7939453-0.5527344,0.7939453s-1-0.3530273-1.1328125-0.0234375
	c-0.1308594,0.3286133,0.109375,0.8686523-0.0234375,1.3950195c-0.1308594,0.5268555-0.0878906,1.1269531-0.0234375,1.5878906
	s0.8554688,1.5478516,1.2519531,1.8769531c0.3945312,0.3291016,1.5390625,0.2900391,2.0664062,0.6191406
	s0.5917969,0.6582031,0.8554688,1.1191406s0.8554688,0.5922852,0.9882812,0.9873047
	c0.1308594,0.3950195,1.3164062,5.0024414,1.3828125,6.0561523c0.0644531,1.0527344,0.8105469,3.9033203,0.9863281,4.34375
	c0.2558594,0.6362305,0.5273438,1.6279297,0.5273438,2.1542969c0,0.5268555,0.0390625,1.090332,0.0390625,1.090332
	s-2.1914062-0.9848633-3.96875-0.1943359c-1.7773438,0.7895508-2.7851562,2.6113281-2.8496094,3.2695312
	c-0.0683594,0.6582031-0.1992188,1.3818359-0.3300781,1.8422852c-0.1308594,0.4609375,0.0664062,1.4487305,0.0664062,1.84375
	c0,0.3945312-0.1972656,0.855957-0.1972656,1.5795898c0,0.7241211,0.5917969,1.3164062,0.7890625,2.3037109
	s0.2617188,1.6455078,0.5917969,1.9091797c0.3300781,0.2631836,1.1855469,0.1972656,1.3828125,0.5268555
	c0.1972656,0.3286133,0.2441406,1.5415039,0.1308594,1.9086914c-0.2617188,0.8554688-1.0527344,1.3164062-1.0527344,1.3164062
	s-0.5253906-0.855957-1.5800781-1.5141602c-1.0527344-0.6582031-1.4472656-1.3164062-2.0390625-1.9086914
	c-0.3300781-0.3295898-1.1196289-0.855957-1.1196289-0.855957s-0.8564453-4.2128906-2.2387695-6.2529297
	c-1.3818359-2.0400391-1.5791016-2.6328125-1.3818359-2.9619141c0.1972656-0.3295898-0.5263672-5.0029297-0.9868164-6.5161133
	c-0.4614258-1.5141602-0.3959961-3.5546875-0.5273438-5.1347656c-0.1313477-1.5795898-0.3950195-3.2250977-0.4604492-3.8178711
	c-0.065918-0.5917969,1.1850586-1.4482422,1.1850586-1.4482422s1.6455078-2.171875,1.8427734-2.5664062
	c0.1977539-0.3950195-0.2626953-1.5805664-0.5927734-2.0410156c-0.3286133-0.4604492-1.1845703-1.0532227-1.5136719-1.0532227
	c-0.3295898,0-0.855957,0.3291016-0.855957,0.3291016s-0.2890625-0.3457031-0.6181641-0.2143555
	c-0.3291016,0.1323242-0.6621094,0.4418945-0.6621094,0.4418945s-0.456543-0.0830078-0.7202148-0.0170898
	c-0.2626953,0.0664062-0.8886719,0.5058594-0.8886719,0.5058594l-0.9648438,0.9980469c0,0-0.4936523,0.2207031-0.2373047,0.5874023
	c0.2202148,0.3144531,0.6977539,0.1098633,0.6977539,0.1098633s-0.2260742,0.2875977-0.2260742,1.0112305
	c0,0.7246094,0.1972656,2.5019531,0.5922852,3.0283203c0.3945312,0.5263672-0.065918,1.6455078-0.1972656,2.5668945
	c-0.1323242,0.9213867-0.987793,7.2402344-0.7905273,8.6884766c0.1977539,1.4487305,0.855957,3.4882812,0.855957,4.0151367
	s0.0004883,1.4487305,0.2636719,1.9086914c0.2626953,0.4609375,0.9213867,1.2514648,1.1186523,2.1064453
	c0.1967773,0.855957,0.9873047,2.8964844,1.5800781,5.5292969c0.5917969,2.6328125,1.5795898,5.1342773,2.3032227,6.1875
	s1.4345703,2.9179688,1.3686523,3.8393555c-0.4272461,0.7138672-1.6962891,2.2158203-2.6821289,3.2363281
	c-0.7563477,0.7836914-0.6508789,3.1733398,0.1884766,4.4790039c0.5864258,0.9130859,1.5527344,1.6894531,1.5405273,1.7480469
	c-0.0385742,0.1787109-1.0058594,3.5883789-1.2041016,4.9047852c-0.1972656,1.3168945-0.3007812,1.8798828-0.2685547,2.8032227
	c0.0415039,1.1538086,0.5976562,2.5112305,0.2407227,4.0620117c-0.4746094,2.0532227-0.4604492,2.7016602-0.6137695,5.1977539
	c-0.1420898,2.3027344-0.5444336,3.8261719-1.1367188,6.0634766c-0.5922852,2.2382812-2.5668945,10.2685547-2.0405273,15.2060547
	c0.5268555,4.9355469,1.3164062,6.9765625,1.1196289,7.7666016c-0.1977539,0.7900391-0.4614258,2.9619141-0.3300781,3.7529297
	c0.1323242,0.7890625,0.3300781,1.9082031,0.1977539,3.0273438c-0.1313477,1.1191406-0.4604492,4.8720703-0.3291016,7.8330078
	s0.3955078,7.3720703,0.1977539,8.2939453C197.5825195,123.668457,197.1782227,124.2827148,197.1782227,124.2827148z"/>
</svg>
